<svg width="24" height="24" viewBox="0 0 24 24" fill="none" xmlns="http://www.w3.org/2000/svg">
<path d="M19 8.75H11C9.75736 8.75 8.75 9.75736 8.75 11V19C8.75 20.2426 9.75736 21.25 11 21.25H19C20.2426 21.25 21.25 20.2426 21.25 19V11C21.25 9.75736 20.2426 8.75 19 8.75Z" stroke="#B0C0D0" stroke-width="1.5"/>
<path fill-rule="evenodd" clip-rule="evenodd" d="M8 4.5H10C11.4566 4.5 12.3982 4.50319 13.0919 4.59646C13.7426 4.68393 13.9465 4.82515 14.0607 4.93934C14.1748 5.05353 14.3161 5.25745 14.4035 5.90806C14.4735 6.42839 14.4928 7.08812 14.498 8H15.9983C15.9862 5.82497 15.8897 4.64706 15.1213 3.87868C14.2426 3 12.8284 3 10 3H8C5.17157 3 3.75736 3 2.87868 3.87868C2 4.75736 2 6.17157 2 9V11C2 13.8284 2 15.2426 2.87868 16.1213C3.75736 17 5.17157 17 8 17V15.5C6.54338 15.5 5.60182 15.4968 4.90806 15.4035C4.25745 15.3161 4.05353 15.1748 3.93934 15.0607C3.82515 14.9465 3.68393 14.7426 3.59646 14.0919C3.50319 13.3982 3.5 12.4566 3.5 11V9C3.5 7.54338 3.50319 6.60182 3.59646 5.90806C3.68393 5.25745 3.82515 5.05353 3.93934 4.93934C4.05353 4.82515 4.25745 4.68393 4.90806 4.59646C5.60182 4.50319 6.54338 4.5 8 4.5Z" fill="#B0C0D0"/>
</svg>
