<svg width="19" height="20" viewBox="0 0 19 20" fill="none" xmlns="http://www.w3.org/2000/svg">
<path d="M16.3249 7.46826C16.3249 7.46826 15.7819 14.2033 15.4669 17.0403C15.3169 18.3953 14.4799 19.1893 13.1089 19.2143C10.4999 19.2613 7.8879 19.2643 5.2799 19.2093C3.9609 19.1823 3.1379 18.3783 2.9909 17.0473C2.6739 14.1853 2.1339 7.46826 2.1339 7.46826" stroke="#B0C0D0" stroke-width="1.5" stroke-linecap="round" stroke-linejoin="round"/>
<path d="M17.7082 4.23975H0.7502" stroke="#B0C0D0" stroke-width="1.5" stroke-linecap="round" stroke-linejoin="round"/>
<path d="M14.4406 4.23973C13.6556 4.23973 12.9796 3.68473 12.8256 2.91573L12.5826 1.69973C12.4326 1.13873 11.9246 0.750732 11.3456 0.750732H7.1126C6.5336 0.750732 6.0256 1.13873 5.8756 1.69973L5.6326 2.91573C5.4786 3.68473 4.8026 4.23973 4.0176 4.23973" stroke="#B0C0D0" stroke-width="1.5" stroke-linecap="round" stroke-linejoin="round"/>
</svg>
