<svg width="24" height="23" viewBox="0 0 24 23" fill="none" xmlns="http://www.w3.org/2000/svg">
<path fill-rule="evenodd" clip-rule="evenodd" d="M13.3496 1.82745L15.5831 6.28948C15.802 6.72752 16.2246 7.03127 16.7145 7.10156L21.711 7.82075C22.9454 7.99898 23.4367 9.49511 22.5433 10.3524L18.9302 13.8241C18.5752 14.1655 18.4135 14.6563 18.4975 15.1382L19.3502 20.0396C19.5602 21.252 18.2697 22.1771 17.1663 21.6035L12.7006 19.2877C12.2628 19.0605 11.7385 19.0605 11.2994 19.2877L6.83367 21.6035C5.73028 22.1771 4.43981 21.252 4.65107 20.0396L5.50248 15.1382C5.58647 14.6563 5.42485 14.1655 5.06978 13.8241L1.45672 10.3524C0.563319 9.49511 1.05456 7.99898 2.28903 7.82075L7.28546 7.10156C7.77543 7.03127 8.19923 6.72752 8.41812 6.28948L10.6504 1.82745C11.2027 0.724183 12.7973 0.724183 13.3496 1.82745Z" stroke="#B0C0D0" stroke-width="1.4" stroke-linecap="round" stroke-linejoin="round"/>
</svg>
