<svg width="17" height="20" viewBox="0 0 17 20" fill="none" xmlns="http://www.w3.org/2000/svg">
<path d="M6.41748 14H1.41748V19" stroke="#B0C0D0" stroke-width="1.5" stroke-linecap="round" stroke-linejoin="round"/>
<path d="M15.8351 12.9968C15.2744 14.3846 14.3357 15.5872 13.1255 16.468C11.9154 17.3488 10.4825 17.8725 8.9896 17.9795C7.4967 18.0865 6.00372 17.7726 4.68035 17.0734C3.35698 16.3742 2.2563 15.3177 1.50342 14.0241" stroke="#B0C0D0" stroke-width="1.5" stroke-linecap="round" stroke-linejoin="round"/>
<path d="M10.4175 6H15.4175V1" stroke="#B0C0D0" stroke-width="1.5" stroke-linecap="round" stroke-linejoin="round"/>
<path d="M1 7.00315C1.56068 5.61541 2.49943 4.41278 3.70954 3.53197C4.91965 2.65116 6.35259 2.12749 7.84549 2.02048C9.33839 1.91346 10.8314 2.2274 12.1547 2.92661C13.4781 3.62582 14.5788 4.68226 15.3317 5.97584" stroke="#B0C0D0" stroke-width="1.5" stroke-linecap="round" stroke-linejoin="round"/>
</svg>
