<svg width="176" height="179" viewBox="0 0 176 179" fill="none" xmlns="http://www.w3.org/2000/svg">
<path fill-rule="evenodd" clip-rule="evenodd" d="M25.0037 4.40399C13.6268 4.40399 4.40399 13.6268 4.40399 25.0037V28.798C4.40399 30.0141 3.41812 31 2.20199 31C0.985866 31 0 30.0141 0 28.798V25.0037C0 11.1945 11.1945 0 25.0037 0H28.798C30.0141 0 31 0.985866 31 2.20199C31 3.41812 30.0141 4.40399 28.798 4.40399H25.0037Z" fill="#415EB6"/>
<path fill-rule="evenodd" clip-rule="evenodd" d="M144 2.20199C144 0.985866 144.986 0 146.202 0H149.996C163.805 0 175 11.1945 175 25.0037V28.798C175 30.0141 174.014 31 172.798 31C171.582 31 170.596 30.0141 170.596 28.798V25.0037C170.596 13.6268 161.373 4.40399 149.996 4.40399H146.202C144.986 4.40399 144 3.41812 144 2.20199Z" fill="#415EB6"/>
<path fill-rule="evenodd" clip-rule="evenodd" d="M173.798 148C175.014 148 176 148.986 176 150.202V153.996C176 167.805 164.805 179 150.996 179H147.202C145.986 179 145 178.014 145 176.798C145 175.582 145.986 174.596 147.202 174.596H150.996C162.373 174.596 171.596 165.373 171.596 153.996V150.202C171.596 148.986 172.582 148 173.798 148Z" fill="#415EB6"/>
<path fill-rule="evenodd" clip-rule="evenodd" d="M3.20199 148C4.41812 148 5.40399 148.986 5.40399 150.202V153.996C5.40399 165.373 14.6268 174.596 26.0037 174.596H29.798C31.0141 174.596 32 175.582 32 176.798C32 178.014 31.0141 179 29.798 179H26.0037C12.1946 179 1 167.805 1 153.996V150.202C1 148.986 1.98587 148 3.20199 148Z" fill="#415EB6"/>
<path fill-rule="evenodd" clip-rule="evenodd" d="M35.9757 32.1301C33.3033 32.1301 31.1369 34.2948 31.1369 36.9653V56.0347C31.1369 58.7051 33.3033 60.8699 35.9757 60.8699H53.0243C55.6967 60.8699 57.8631 58.7051 57.8631 56.0347V36.9653C57.8631 34.2948 55.6967 32.1301 53.0243 32.1301H35.9757ZM22 36.9653C22 29.2525 28.2571 23 35.9757 23H53.0243C60.7429 23 67 29.2525 67 36.9653V56.0347C67 63.7475 60.7429 70 53.0243 70H35.9757C28.2571 70 22 63.7475 22 56.0347V36.9653Z" fill="#B0C0D0"/>
<path d="M45 51C47.7614 51 50 48.7614 50 46C50 43.2386 47.7614 41 45 41C42.2386 41 40 43.2386 40 46C40 48.7614 42.2386 51 45 51Z" fill="#B0C0D0"/>
<path fill-rule="evenodd" clip-rule="evenodd" d="M35.9757 118.13C33.3033 118.13 31.1369 120.295 31.1369 122.965V142.035C31.1369 144.705 33.3033 146.87 35.9757 146.87H53.0243C55.6967 146.87 57.8631 144.705 57.8631 142.035V122.965C57.8631 120.295 55.6967 118.13 53.0243 118.13H35.9757ZM22 122.965C22 115.252 28.2571 109 35.9757 109H53.0243C60.7429 109 67 115.252 67 122.965V142.035C67 149.748 60.7429 156 53.0243 156H35.9757C28.2571 156 22 149.748 22 142.035V122.965Z" fill="#B0C0D0"/>
<path d="M45 137C47.7614 137 50 134.761 50 132C50 129.239 47.7614 127 45 127C42.2386 127 40 129.239 40 132C40 134.761 42.2386 137 45 137Z" fill="#B0C0D0"/>
<path fill-rule="evenodd" clip-rule="evenodd" d="M121.976 32.1301C119.303 32.1301 117.137 34.2949 117.137 36.9653V56.0347C117.137 58.7051 119.303 60.8699 121.976 60.8699H139.024C141.697 60.8699 143.863 58.7051 143.863 56.0347V36.9653C143.863 34.2949 141.697 32.1301 139.024 32.1301H121.976ZM108 36.9653C108 29.2525 114.257 23 121.976 23H139.024C146.743 23 153 29.2525 153 36.9653V56.0347C153 63.7475 146.743 70 139.024 70H121.976C114.257 70 108 63.7475 108 56.0347V36.9653Z" fill="#B0C0D0"/>
<path d="M131 51C133.761 51 136 48.7614 136 46C136 43.2386 133.761 41 131 41C128.239 41 126 43.2386 126 46C126 48.7614 128.239 51 131 51Z" fill="#B0C0D0"/>
<path fill-rule="evenodd" clip-rule="evenodd" d="M92.6963 21C95.0731 21 97 23.0651 97 25.6124V56.4032C97 58.9506 95.0731 61.0156 92.6963 61.0156H87.6075V76.3876C87.6075 78.9349 85.6806 81 83.3037 81C80.9269 81 79 78.9349 79 76.3876V56.4032C79 53.8558 80.9269 51.7907 83.3037 51.7907H88.3925V25.6124C88.3925 23.0651 90.3194 21 92.6963 21Z" fill="#B0C0D0"/>
<path fill-rule="evenodd" clip-rule="evenodd" d="M77 37C77 34.2386 78.9884 32 81.4411 32H92.5589C95.0116 32 97 34.2386 97 37C97 39.7614 95.0116 42 92.5589 42H81.4411C78.9884 42 77 39.7614 77 37Z" fill="#B0C0D0"/>
<path fill-rule="evenodd" clip-rule="evenodd" d="M22 83.3991C22 80.9695 24.0652 79 26.6127 79H38.3873C40.9348 79 43 80.9695 43 83.3991C43 85.8286 40.9348 87.7982 38.3873 87.7982H31.2255V96.6009C31.2255 99.0305 29.1603 101 26.6127 101C24.0652 101 22 99.0305 22 96.6009V83.3991Z" fill="#B0C0D0"/>
<path fill-rule="evenodd" clip-rule="evenodd" d="M45 93.7569C45 91.1297 47.0816 89 49.6495 89H82.3505C84.9184 89 87 91.1297 87 93.7569V105.243C87 107.87 84.9184 110 82.3505 110C79.7827 110 77.7011 107.87 77.7011 105.243V98.5138H49.6495C47.0816 98.5138 45 96.3841 45 93.7569Z" fill="#B0C0D0"/>
<path fill-rule="evenodd" clip-rule="evenodd" d="M58.5 77C60.9853 77 63 79.0344 63 81.5439V93.4561C63 95.9656 60.9853 98 58.5 98C56.0147 98 54 95.9656 54 93.4561V81.5439C54 79.0344 56.0147 77 58.5 77Z" fill="#B0C0D0"/>
<path fill-rule="evenodd" clip-rule="evenodd" d="M83.4451 122C85.9001 122 87.8903 124.082 87.8903 126.649V135.355H93.1462C95.6011 135.355 97.5913 137.437 97.5913 140.004V145.701H105.555C108.01 145.701 110 147.783 110 150.351C110 152.918 108.01 155 105.555 155H93.1462C90.6912 155 88.701 152.918 88.701 150.351V144.654H83.4451C80.9902 144.654 79 142.572 79 140.004V126.649C79 124.082 80.9902 122 83.4451 122Z" fill="#B0C0D0"/>
<path fill-rule="evenodd" clip-rule="evenodd" d="M109 134.5C109 132.015 111.036 130 113.548 130H120.452C122.964 130 125 132.015 125 134.5C125 136.985 122.964 139 120.452 139H113.548C111.036 139 109 136.985 109 134.5Z" fill="#B0C0D0"/>
<path fill-rule="evenodd" clip-rule="evenodd" d="M102.361 97C104.923 97 107 99.0987 107 101.688V119.312C107 121.901 104.923 124 102.361 124H91.6391C89.077 124 87 121.901 87 119.312C87 116.724 89.077 114.625 91.6391 114.625H97.7217V101.688C97.7217 99.0987 99.7987 97 102.361 97Z" fill="#B0C0D0"/>
<path fill-rule="evenodd" clip-rule="evenodd" d="M96 83.5623C96 81.0426 98.0426 79 100.562 79H122.438C124.957 79 127 81.0426 127 83.5623V105.438C127 107.957 124.957 110 122.438 110C119.918 110 117.875 107.957 117.875 105.438V88.1247H100.562C98.0426 88.1247 96 86.082 96 83.5623Z" fill="#B0C0D0"/>
<path fill-rule="evenodd" clip-rule="evenodd" d="M118 93.5C118 91.0147 119.967 89 122.393 89H133.607C136.033 89 138 91.0147 138 93.5C138 95.9853 136.033 98 133.607 98H122.393C119.967 98 118 95.9853 118 93.5Z" fill="#B0C0D0"/>
<path fill-rule="evenodd" clip-rule="evenodd" d="M149.5 76C151.985 76 154 77.9971 154 80.4607V91.5393C154 94.0029 151.985 96 149.5 96C147.015 96 145 94.0029 145 91.5393V80.4607C145 77.9971 147.015 76 149.5 76Z" fill="#B0C0D0"/>
<path fill-rule="evenodd" clip-rule="evenodd" d="M148.441 97C150.959 97 153 99.0539 153 101.588V117.412C153 119.946 150.959 122 148.441 122H132.559C130.041 122 128 119.946 128 117.412C128 114.879 130.041 112.825 132.559 112.825H143.881V101.588C143.881 99.0539 145.922 97 148.441 97Z" fill="#B0C0D0"/>
<path fill-rule="evenodd" clip-rule="evenodd" d="M139.431 132C141.955 132 144 134.053 144 136.586V150.414C144 152.947 141.955 155 139.431 155H122.569C120.045 155 118 152.947 118 150.414C118 147.881 120.045 145.827 122.569 145.827H134.863V136.586C134.863 134.053 136.908 132 139.431 132Z" fill="#B0C0D0"/>
<path fill-rule="evenodd" clip-rule="evenodd" d="M0 89C0 87.8954 0.979586 87 2.18797 87H172.812C174.02 87 175 87.8954 175 89C175 90.1046 174.02 91 172.812 91H2.18797C0.979586 91 0 90.1046 0 89Z" fill="#415EB6"/>
</svg>
