<svg width="17" height="17" viewBox="0 0 17 17" fill="none" xmlns="http://www.w3.org/2000/svg">
<path d="M16.708 15.7097L12.6393 11.6411C13.7981 10.2262 14.3684 8.41999 14.2325 6.59627C14.0965 4.77254 13.2646 3.07089 11.909 1.84345C10.5533 0.616017 8.7776 -0.0432374 6.94937 0.00211789C5.12115 0.0474732 3.38034 0.793966 2.08719 2.08711C0.794042 3.38026 0.0475495 5.12107 0.00219419 6.9493C-0.0431611 8.77752 0.616093 10.5532 1.84353 11.9089C3.07096 13.2646 4.77262 14.0965 6.59634 14.2324C8.42007 14.3684 10.2263 13.798 11.6411 12.6393L15.7098 16.7045C15.7751 16.77 15.8527 16.8221 15.9381 16.8576C16.0236 16.8932 16.1151 16.9116 16.2077 16.9117C16.3002 16.9119 16.3919 16.8938 16.4774 16.8586C16.563 16.8233 16.6407 16.7715 16.7063 16.7062C16.7718 16.6409 16.8239 16.5633 16.8594 16.4779C16.895 16.3924 16.9134 16.3008 16.9135 16.2083C16.9137 16.1158 16.8956 16.0241 16.8603 15.9386C16.8251 15.853 16.7733 15.7752 16.708 15.7097ZM7.12391 12.8325C5.99379 12.8321 4.88917 12.4966 3.94972 11.8684C3.01028 11.2402 2.27821 10.3476 1.84607 9.30334C1.41394 8.2591 1.30115 7.11018 1.52197 6.00184C1.7428 4.89351 2.28731 3.87554 3.08666 3.07666C3.88602 2.27779 4.90431 1.73388 6.01278 1.51372C7.12124 1.29356 8.2701 1.40703 9.31408 1.83979C10.3581 2.27255 11.2503 3.00516 11.8779 3.94498C12.5055 4.8848 12.8404 5.98962 12.8401 7.11973C12.8383 8.63489 12.2353 10.0874 11.1637 11.1585C10.092 12.2295 8.63906 12.8316 7.12391 12.8325Z" fill="#5D82F5"/>
</svg>
