<svg width="28" height="23" viewBox="0 0 29 24" fill="none" xmlns="http://www.w3.org/2000/svg">
<path d="M25.114 1H4C2.34315 1 1 2.34315 1 4V20C1 21.6569 2.34315 23 4 23H5.96196C6.52888 23 6.98242 22.5292 6.96127 21.9627L6.91182 20.6386L6.86238 19.3145C6.84122 18.748 7.29476 18.2772 7.86168 18.2772H8.5H10.6149H13.7991H18.214H19.5H21.614C22.1663 18.2772 22.614 18.7249 22.614 19.2772V22C22.614 22.5523 23.0617 23 23.614 23H25.114C26.7708 23 28.114 21.6569 28.114 20V4C28.114 2.34315 26.7708 1 25.114 1Z" stroke="currentColor" stroke-width="1.6"/>
<path d="M7 12V9C7 7.89543 7.89543 7 9 7H21.114C22.2185 7 23.114 7.89543 23.114 9V12C23.114 13.1046 22.2185 14 21.114 14H9C7.89543 14 7 13.1046 7 12Z" stroke="currentColor" stroke-width="1.6"/>
</svg>
