<svg width="25" height="25" viewBox="0 0 24 24" fill="none" xmlns="http://www.w3.org/2000/svg">
<path fill-rule="evenodd" clip-rule="evenodd" d="M13.3496 2.82745L15.5831 7.28948C15.802 7.72752 16.2246 8.03127 16.7145 8.10156L21.711 8.82075C22.9454 8.99898 23.4367 10.4951 22.5433 11.3524L18.9302 14.8241C18.5752 15.1655 18.4135 15.6563 18.4975 16.1382L19.3502 21.0396C19.5602 22.252 18.2697 23.1771 17.1663 22.6035L12.7006 20.2877C12.2628 20.0605 11.7385 20.0605 11.2994 20.2877L6.83367 22.6035C5.73028 23.1771 4.43981 22.252 4.65107 21.0396L5.50248 16.1382C5.58647 15.6563 5.42485 15.1655 5.06978 14.8241L1.45672 11.3524C0.563319 10.4951 1.05456 8.99898 2.28903 8.82075L7.28546 8.10156C7.77543 8.03127 8.19923 7.72752 8.41812 7.28948L10.6504 2.82745C11.2027 1.72418 12.7973 1.72418 13.3496 2.82745Z" stroke="currentColor" stroke-width="1.4" stroke-linecap="round" stroke-linejoin="round"/>
</svg>
