<svg width="25" height="25" viewBox="0 0 25 25" fill="none" xmlns="http://www.w3.org/2000/svg">
<path d="M9.32294 21.6485V18.2751C9.32292 17.4171 10.0224 16.7199 10.8891 16.7142H14.0638C14.9346 16.7142 15.6406 17.413 15.6406 18.2751V18.2751V21.659C15.6404 22.3875 16.2277 22.9829 16.9633 23H19.0798C21.1896 23 22.9 21.3067 22.9 19.218V19.218V9.62162C22.8887 8.79991 22.499 8.02828 21.8418 7.52634L14.6035 1.75383C13.3354 0.748723 11.5328 0.748723 10.2648 1.75383L3.05823 7.53681C2.39848 8.03672 2.00813 8.80963 2 9.6321V19.218C2 21.3067 3.71036 23 5.8202 23H7.93666C8.69059 23 9.30177 22.3949 9.30177 21.6485V21.6485" stroke="currentColor" stroke-width="1.4" stroke-linecap="round" stroke-linejoin="round"/>
</svg>
