<svg width="25" height="25" viewBox="0 0 25 25" fill="none" xmlns="http://www.w3.org/2000/svg">
<path fill-rule="evenodd" clip-rule="evenodd" d="M15.6151 2.35854C16.8162 2.83659 17.1837 4.50146 17.6748 5.03659C18.1659 5.57173 18.8688 5.75368 19.2576 5.75368C21.3244 5.75368 23 7.42924 23 9.49486V16.3862C23 19.157 20.7524 21.4046 17.9816 21.4046H6.01838C3.24638 21.4046 1 19.157 1 16.3862V9.49486C1 7.42924 2.67557 5.75368 4.74238 5.75368C5.13005 5.75368 5.83287 5.57173 6.32519 5.03659C6.81632 4.50146 7.18259 2.83659 8.38368 2.35854C9.58595 1.88049 14.4141 1.88049 15.6151 2.35854Z" stroke="currentColor" stroke-width="1.4" stroke-linecap="round" stroke-linejoin="round"/>
<path fill-rule="evenodd" clip-rule="evenodd" d="M15.7801 13.1525C15.7801 11.0643 14.0879 9.37207 11.9997 9.37207C9.91145 9.37207 8.21924 11.0643 8.21924 13.1525C8.21924 15.2407 9.91145 16.9329 11.9997 16.9329C14.0879 16.9329 15.7801 15.2407 15.7801 13.1525Z" stroke="currentColor" stroke-width="1.4" stroke-linecap="round" stroke-linejoin="round"/>
</svg>
