<svg width="25" height="25" viewBox="0 0 24 24" fill="none" xmlns="http://www.w3.org/2000/svg">
<g clip-path="url(#clip0_201_204)">
<path d="M23.9997 9.33557C23.9997 7.06901 22.7259 4.95166 20.4132 3.37351C18.159 1.83535 15.171 0.988251 11.9996 0.988251C8.82897 0.988251 5.84131 1.83535 3.58696 3.37356C1.2739 4.95176 0 7.06911 0 9.33557C0 9.37037 0.00125 9.40502 0.00185 9.43972C0.000950002 9.45177 0 9.46377 0 9.47597V14.6336C0 14.6609 0.00225 14.6882 0.00670001 14.7151C0.378601 16.9647 1.7815 19.046 3.95706 20.5756C6.19146 22.1466 9.11072 23.0118 12.177 23.0118C14.1832 23.0118 16.1741 22.67 17.9343 22.0235C19.6383 21.3976 21.0979 20.5006 22.1551 19.4294C23.3796 18.1887 24.0174 16.7714 23.9997 15.3304V9.79097C23.9997 9.75517 23.9958 9.72032 23.9886 9.68667C23.9954 9.57002 23.9997 9.45307 23.9997 9.33557ZM5.38956 20.3016C5.09321 20.1319 4.80681 19.9507 4.53221 19.7576C2.59086 18.3926 1.33785 16.5596 1 14.5918V12.692C1.6055 13.6552 2.47601 14.5375 3.58701 15.2953C4.14561 15.6763 4.74931 16.0147 5.38956 16.3085V20.3016ZM4.15051 14.4691C2.11885 13.0834 1 11.2603 1 9.33557C1 7.40981 2.1189 5.58581 4.15061 4.19956C6.24051 2.77355 9.02807 1.98825 11.9996 1.98825C14.2771 1.98825 16.3951 2.453 18.1523 3.24791L5.64446 15.3241C5.11576 15.0719 4.61576 14.7865 4.15051 14.4691ZM11.8062 10.7651L16.6219 15.9999C15.1919 16.4449 13.6234 16.6798 11.9996 16.6798C10.0936 16.6798 8.26372 16.3563 6.64461 15.7485L11.8062 10.7651ZM16.923 21.3048C15.4554 21.7612 13.8328 22.0117 12.177 22.0117C10.1078 22.0118 8.11582 21.5932 6.38956 20.8121V16.7202C8.09747 17.3471 10.0126 17.6798 11.9996 17.6798C13.7246 17.6798 15.3951 17.4287 16.923 16.9527V21.3048ZM12.5259 10.0703L19.0963 3.72666C21.482 5.07546 22.9996 7.08921 22.9996 9.33557C22.9996 11.2604 21.8809 13.0836 19.8496 14.4692C19.1809 14.9253 18.4405 15.3155 17.6457 15.6357L12.5259 10.0703ZM21.4434 18.7269C20.5426 19.6395 19.3265 20.3958 17.923 20.9521V16.6009C18.8214 16.2468 19.6585 15.81 20.4132 15.2952C21.5239 14.5376 22.3942 13.6553 22.9996 12.6922V15.3333C22.9996 15.3355 22.9996 15.3377 22.9997 15.3399C23.015 16.5086 22.4768 17.6798 21.4434 18.7269Z" fill="currentColor"/>
</g>
<defs>
<clipPath id="clip0_201_204">
<rect width="24" height="24" fill="white"/>
</clipPath>
</defs>
</svg>
