<svg width="14" height="14" viewBox="0 0 14 14" fill="none" xmlns="http://www.w3.org/2000/svg">
<g clip-path="url(#clip0_25_7025)">
<path fill-rule="evenodd" clip-rule="evenodd" d="M6.2 12.6C6.2 11.8268 6.8268 11.2 7.6 11.2C8.3732 11.2 9 11.8268 9 12.6C9 13.3732 8.3732 14 7.6 14C6.8268 14 6.2 13.3732 6.2 12.6ZM6.2 7C6.2 6.2268 6.8268 5.6 7.6 5.6C8.3732 5.6 9 6.2268 9 7C9 7.7732 8.3732 8.4 7.6 8.4C6.8268 8.4 6.2 7.7732 6.2 7ZM7.6 1.22392e-07C6.8268 1.89987e-07 6.2 0.626802 6.2 1.4C6.2 2.1732 6.8268 2.8 7.6 2.8C8.3732 2.8 9 2.1732 9 1.4C9 0.626801 8.3732 5.47967e-08 7.6 1.22392e-07Z" fill="#22215B"/>
</g>
<defs>
<clipPath id="clip0_25_7025">
<rect width="14" height="14" fill="white"/>
</clipPath>
</defs>
</svg>
