<svg width="12" height="14" viewBox="0 0 12 14" fill="none" xmlns="http://www.w3.org/2000/svg">
<path fill-rule="evenodd" clip-rule="evenodd" d="M7.03035 -1.33514e-05C7.80398 -1.33514e-05 8.4493 0.591287 8.51685 1.36189C8.6581 2.97319 8.69384 4.59169 8.62398 6.20699C8.70831 6.21259 8.79262 6.21849 8.87692 6.22469L10.3665 6.33319C11.3185 6.40259 11.8507 7.4642 11.3367 8.26858C10.2406 9.98409 8.23132 11.9041 6.57785 13.0919C6.09405 13.4394 5.44245 13.4394 4.95855 13.0919C3.30515 11.9041 1.29595 9.9841 0.19975 8.26858C-0.31425 7.4642 0.21795 6.40259 1.16995 6.33319L2.65955 6.22469C2.74385 6.21849 2.82815 6.21259 2.91245 6.20699C2.84265 4.59169 2.87835 2.97319 3.01965 1.36189C3.08715 0.591287 3.73245 -1.33514e-05 4.50605 -1.33514e-05H7.03035ZM7.08675 6.86476C7.20045 5.07749 7.17925 3.28419 7.02325 1.49999H4.51325C4.35725 3.28419 4.33595 5.07749 4.44965 6.86476C4.46245 7.06513 4.39435 7.26224 4.26055 7.41198C4.12685 7.56173 3.93865 7.65159 3.73815 7.66147C3.41475 7.6774 3.09155 7.69714 2.76855 7.72068L1.68675 7.79954C2.64635 9.21284 3.84785 10.4471 5.23695 11.4449L5.76825 11.8266L6.29955 11.4449C7.68865 10.4471 8.89012 9.21283 9.84967 7.79954L8.76787 7.72068C8.44488 7.69714 8.12169 7.6774 7.79835 7.66147C7.59785 7.65159 7.40965 7.56173 7.27585 7.41198C7.14215 7.26224 7.07405 7.06513 7.08675 6.86476Z" fill="#415EB6"/>
</svg>
