<svg width="11" height="10" viewBox="0 0 11 10" fill="none" xmlns="http://www.w3.org/2000/svg">
<path fill-rule="evenodd" clip-rule="evenodd" d="M5.94368 0.398239L7.01863 2.54574C7.12398 2.75656 7.32733 2.90275 7.56315 2.93658L9.96784 3.28271C10.562 3.36849 10.7984 4.08856 10.3684 4.50114L8.62952 6.17202C8.45863 6.33633 8.38084 6.57253 8.42127 6.80449L8.83165 9.16342C8.93271 9.74696 8.31163 10.1922 7.78059 9.9161L5.6313 8.80158C5.4206 8.69224 5.16825 8.69224 4.95693 8.80158L2.80765 9.9161C2.27661 10.1922 1.65553 9.74696 1.7572 9.16342L2.16697 6.80449C2.20739 6.57253 2.12961 6.33633 1.95872 6.17202L0.219812 4.50114C-0.210167 4.08856 0.0262598 3.36849 0.620391 3.28271L3.02509 2.93658C3.2609 2.90275 3.46487 2.75656 3.57022 2.54574L4.64456 0.398239C4.91038 -0.132746 5.67785 -0.132746 5.94368 0.398239Z" fill="#415EB6"/>
</svg>
