<svg width="24" height="24" viewBox="0 0 24 24" fill="none" xmlns="http://www.w3.org/2000/svg">
<path d="M0 0H9C17.2843 0 24 6.71573 24 15V24H5C2.23858 24 0 21.7614 0 19V0Z" fill="#EEF2FE"/>
<path fill-rule="evenodd" clip-rule="evenodd" d="M12.9437 7.39824L14.0186 9.54574C14.124 9.75656 14.3273 9.90275 14.5631 9.93658L16.9678 10.2827C17.562 10.3685 17.7984 11.0886 17.3684 11.5011L15.6295 13.172C15.4586 13.3363 15.3808 13.5725 15.4213 13.8045L15.8316 16.1634C15.9327 16.747 15.3116 17.1922 14.7806 16.9161L12.6313 15.8016C12.4206 15.6922 12.1682 15.6922 11.9569 15.8016L9.80765 16.9161C9.27661 17.1922 8.65553 16.747 8.7572 16.1634L9.16697 13.8045C9.20739 13.5725 9.12961 13.3363 8.95872 13.172L7.21981 11.5011C6.78983 11.0886 7.02626 10.3685 7.62039 10.2827L10.0251 9.93658C10.2609 9.90275 10.4649 9.75656 10.5702 9.54574L11.6446 7.39824C11.9104 6.86725 12.6779 6.86725 12.9437 7.39824Z" fill="#415EB6"/>
</svg>
