<svg width="82" height="82" viewBox="0 0 82 82" fill="none" xmlns="http://www.w3.org/2000/svg">
<rect x="0.5" y="0.5" width="81" height="81" rx="15.5" fill="#F7FAFF"/>
<path fill-rule="evenodd" clip-rule="evenodd" d="M53.5585 45.9761C53.5585 50.7468 50.7465 53.5588 45.9759 53.5588H35.5999C30.8172 53.5588 27.9999 50.7468 27.9999 45.9761V35.5761C27.9999 30.8121 29.7519 28.0001 34.5239 28.0001H37.1905C38.1479 28.0015 39.0492 28.4508 39.6225 29.2175L40.8399 30.8361C41.4159 31.6015 42.3172 32.0521 43.2745 32.0535H47.0479C51.8305 32.0535 53.5959 34.4881 53.5959 39.3561L53.5585 45.9761Z" stroke="#B0C0D0" stroke-width="1.5" stroke-linecap="round" stroke-linejoin="round"/>
<path d="M34.9747 44.284H46.6213" stroke="#B0C0D0" stroke-width="1.5" stroke-linecap="round" stroke-linejoin="round"/>
<rect x="0.5" y="0.5" width="81" height="81" rx="15.5" stroke="#EEF2FE"/>
</svg>
