<svg width="82" height="82" viewBox="0 0 82 82" fill="none" xmlns="http://www.w3.org/2000/svg">
<rect x="0.5" y="0.5" width="81" height="81" rx="15.5" fill="#F7FAFF"/>
<path fill-rule="evenodd" clip-rule="evenodd" d="M42.7996 28.7699L45.7776 34.7193C46.0694 35.3034 46.6328 35.7083 47.2861 35.8021L53.948 36.761C55.594 36.9986 56.2489 38.9935 55.0577 40.1365L50.2403 44.7654C49.7669 45.2206 49.5514 45.875 49.6634 46.5176L50.8003 53.0527C51.0803 54.6693 49.3597 55.9027 47.8885 55.1379L41.9342 52.0503C41.3504 51.7474 40.6513 51.7474 40.0659 52.0503L34.1116 55.1379C32.6404 55.9027 30.9198 54.6693 31.2015 53.0527L32.3367 46.5176C32.4487 45.875 32.2332 45.2206 31.7597 44.7654L26.9423 40.1365C25.7511 38.9935 26.4061 36.9986 28.0521 36.761L34.714 35.8021C35.3673 35.7083 35.9323 35.3034 36.2242 34.7193L39.2005 28.7699C39.937 27.2989 42.0631 27.2989 42.7996 28.7699Z" stroke="#B0C0D0" stroke-width="1.4" stroke-linecap="round" stroke-linejoin="round"/>
<rect x="0.5" y="0.5" width="81" height="81" rx="15.5" stroke="#EEF2FE"/>
</svg>
