<svg width="24" height="24" viewBox="0 0 24 24" fill="none" xmlns="http://www.w3.org/2000/svg">
<path d="M9.19428 10.4226C9.19546 10.3955 9.17475 10.3724 9.14764 10.3706C9.06343 10.365 8.97924 10.3591 8.89506 10.3529L8.89502 10.3529L7.40547 10.2444C6.4912 10.1777 5.98011 9.15825 6.4737 8.38579C7.5655 6.67715 9.56959 4.76144 11.2196 3.57617C11.686 3.24115 12.3141 3.24114 12.7806 3.57617C14.4306 4.76144 16.4346 6.67714 17.5264 8.38579C18.02 9.15825 17.5089 10.1777 16.5947 10.2444L15.1051 10.3529L15.1051 10.3529C15.0209 10.3591 14.9367 10.365 14.8525 10.3706C14.8254 10.3724 14.8047 10.3955 14.8059 10.4226C14.8756 12.0357 14.84 13.6521 14.6989 15.2612L14.7487 15.2656L14.6989 15.2612C14.6336 16.006 14.0099 16.5775 13.2623 16.5775H10.738C9.99025 16.5775 9.36656 16.006 9.30127 15.2612C9.16021 13.6521 9.12452 12.0357 9.19428 10.4226ZM10.6953 15.1318C10.6975 15.1576 10.7191 15.1775 10.7451 15.1775H13.2551C13.281 15.1775 13.3026 15.1576 13.3049 15.1318C13.4611 13.3451 13.4824 11.5493 13.3686 9.75951L13.3686 9.7595C13.3566 9.57249 13.4202 9.38853 13.545 9.24878L13.5451 9.24876C13.6698 9.10901 13.8455 9.02514 14.0326 9.01591C14.3564 8.99997 14.68 8.9802 15.0034 8.95663L16.0852 8.87777C16.103 8.87647 16.1188 8.86577 16.1266 8.84969C16.1343 8.83361 16.133 8.8146 16.1229 8.79982C15.16 7.38166 13.9544 6.14317 12.5605 5.1419L12.0292 4.76026C12.0118 4.74773 11.9883 4.74773 11.9709 4.76026L11.4396 5.1419C10.0457 6.14317 8.84012 7.38167 7.87727 8.79982C7.86724 8.8146 7.86585 8.83361 7.87363 8.84969C7.88142 8.86577 7.89719 8.87647 7.915 8.87777L8.9968 8.95663C9.32019 8.9802 9.64377 8.99997 9.9675 9.01591C10.1546 9.02514 10.3303 9.109 10.4552 9.24878C10.58 9.38853 10.6435 9.5725 10.6317 9.75952C10.5178 11.5493 10.539 13.3451 10.6953 15.1318Z" fill="#EEF2FE" stroke="#F7FAFF" stroke-width="0.1" stroke-linejoin="round"/>
<path d="M5 16.3C5.3866 16.3 5.7 16.6134 5.7 17V19C5.7 19.1657 5.83432 19.3 6 19.3H18C18.1657 19.3 18.3 19.1657 18.3 19V17C18.3 16.6134 18.6134 16.3 19 16.3C19.3866 16.3 19.7 16.6134 19.7 17V19C19.7 19.9389 18.9389 20.7 18 20.7H6C5.06111 20.7 4.3 19.9389 4.3 19V17C4.3 16.6134 4.6134 16.3 5 16.3Z" fill="#F7FAFF" stroke="#F7FAFF" stroke-width="0.1" stroke-linejoin="round"/>
</svg>
