<svg width="19" height="19" viewBox="0 0 19 19" fill="none" xmlns="http://www.w3.org/2000/svg">
<path d="M7.00559 1.26295C8.79461 1.0024 9.47161 0.918701 10.0908 1.08822C10.202 1.11865 10.3114 1.15498 10.4188 1.19704C11.0165 1.43135 11.5091 1.90313 12.7875 3.18151L14.1344 4.52842C15.3243 5.71833 16.1687 6.56446 16.7392 7.28991C17.2991 8.00199 17.5314 8.52089 17.5781 9.03989C17.5956 9.23389 17.5956 9.42899 17.5781 9.62299C17.5314 10.142 17.2991 10.6609 16.7392 11.3729C16.1687 12.0984 15.3243 12.9445 14.1344 14.1344C12.9445 15.3243 12.0984 16.1687 11.3729 16.7392C10.6609 17.2991 10.142 17.5314 9.62301 17.5781C9.42901 17.5956 9.23381 17.5956 9.03981 17.5781C8.52081 17.5314 8.00201 17.2991 7.28992 16.7392C6.56446 16.1687 5.71833 15.3243 4.52842 14.1344L3.18151 12.7875C1.90313 11.5091 1.43135 11.0165 1.19704 10.4188C1.15498 10.3115 1.11865 10.202 1.08821 10.0908C0.918703 9.47159 1.0024 8.79459 1.26295 7.00559C1.44814 5.73404 1.57975 4.83684 1.75479 4.14465C1.92587 3.46817 2.12291 3.0566 2.39954 2.73612C2.50335 2.61585 2.61585 2.50336 2.73611 2.39955C3.05659 2.12291 3.46816 1.92587 4.14464 1.7548C4.83683 1.57975 5.73403 1.44814 7.00559 1.26295Z" stroke="currentColor" stroke-width="1.5"/>
<path d="M8.99799 8.99813C9.73437 8.26175 9.73437 7.06784 8.99799 6.33146C8.26161 5.59508 7.0677 5.59508 6.33132 6.33146C5.59494 7.06784 5.59494 8.26175 6.33132 8.99813C7.0677 9.73451 8.26161 9.73451 8.99799 8.99813Z" stroke="currentColor" stroke-width="1.5"/>
</svg>
