<?xml version="1.0" encoding="utf-8"?>
<!-- Generator: Adobe Illustrator 26.5.0, SVG Export Plug-In . SVG Version: 6.00 Build 0)  -->
<svg version="1.1" xmlns="http://www.w3.org/2000/svg" xmlns:xlink="http://www.w3.org/1999/xlink" x="0px" y="0px"
	 viewBox="0 0 395.8 395.8" style="enable-background:new 0 0 395.8 395.8;" xml:space="preserve">
<style type="text/css">
	.st0{fill:url(#SVGID_1_);}
	.st1{fill:url(#SVGID_00000132805247675707403640000010985461795083920053_);}
	.st2{fill:url(#SVGID_00000075153671568137037090000011318176699505466507_);}
	.st3{fill:#1D1D1D;}
</style>
<g id="Livello_1">
</g>
<g id="Livello_2">
	<g>
		<g>
			<linearGradient id="SVGID_1_" gradientUnits="userSpaceOnUse" x1="121.3556" y1="142.8434" x2="183.0254" y2="142.8434">
				<stop  offset="0" style="stop-color:#68C7E7"/>
				<stop  offset="1" style="stop-color:#2A4798"/>
			</linearGradient>
			<path class="st0" d="M166.9,138.9L166.9,138.9c-2.2,0-4.3,0.4-6.2,1.2c-1.9,0.8-4.1,0.4-5.5-1.1l-4.4-4.4
				c-1.4-1.4-1.9-3.6-1.1-5.4c0.8-2.1,1.2-4.4,0.9-6.8c-0.7-7.2-6.4-12.8-13.7-13.2c-9.1-0.6-16.6,7.2-15.5,16.4
				c0.8,6.5,5.6,11.6,12,12.7c2.6,0.4,5.2,0.2,7.4-0.6c1.9-0.7,3.9-0.2,5.3,1.2l4.6,4.6c1.4,1.4,1.9,3.6,1.1,5.5
				c-0.8,1.9-1.2,4-1.2,6.2v5.1v11.1l0.1,4.7c0,0.6,0.7,0.8,1.1,0.4c3.4-3.9,10.4-5.1,15-5.1c10.6,0,18.8-10.2,15.4-21.3
				C180.2,143.3,173.8,138.9,166.9,138.9z"/>
		</g>
		<g>
			
				<linearGradient id="SVGID_00000137124228187135312240000005171099497908426930_" gradientUnits="userSpaceOnUse" x1="138.2987" y1="198.9668" x2="139.1287" y2="242.1644">
				<stop  offset="0" style="stop-color:#68C7E7"/>
				<stop  offset="1" style="stop-color:#2A4798"/>
			</linearGradient>
			<path style="fill:url(#SVGID_00000137124228187135312240000005171099497908426930_);" d="M136,222.4c1.8,1.3,3.3,3,4.5,5.1
				c1.1-0.2,2.1-0.3,3.2-0.3c2.3,0,4.5,0.5,6.5,1.5c0.2-2,0.2-3.9,0.2-5.8v-35.1H150c-13,0-23.6,10.6-23.6,23.6v7.9
				c0.1,0,0.1,0,0.2,0C130,219.2,133.2,220.3,136,222.4z"/>
			
				<linearGradient id="SVGID_00000145749697357718143260000009595208422193427852_" gradientUnits="userSpaceOnUse" x1="75.7398" y1="218.0516" x2="166.9689" y2="218.0516">
				<stop  offset="0" style="stop-color:#68C7E7"/>
				<stop  offset="1" style="stop-color:#2A4798"/>
			</linearGradient>
			<path style="fill:url(#SVGID_00000145749697357718143260000009595208422193427852_);" d="M164,241.7c-2.1-1.6-4.2-1.9-7.9-1.1
				c-1-7.9-8.5-13.3-16.8-10.6c-1.1-2.3-2.5-4.3-4.6-5.9c-8.6-6.3-20.8-1-22,9.6c-0.1,0.8-0.3,1.1-1.1,1.2c-0.4,0-0.8,0.1-1.2,0.2
				c-2.7-0.4-5-1.4-6.9-3.1c-3.5-3.2-3.9-7.7-3.9-11.4v-40.1H75.7v43.8c0,7.3,1,15,8,21.9c6.5,6.4,16.1,9.5,29.3,9.5
				c1.2,0,2.4,0,3.5-0.1c8.1,0,16.1,0,24.2,0c6.2,0,12.3,0,18.5,0c3.5,0,6.3-2.1,7.4-5.3C167.6,247.1,166.6,243.8,164,241.7z"/>
		</g>
		<g>
			<path class="st3" d="M233.4,195.3c-11.6,0-21.1,9.5-21.1,21.1v8.2c0,3-0.3,7.3-3.4,10.2c-2,1.9-5.2,2.9-8.6,2.9
				c-3.5,0-6.2-1-8.5-3c-3.1-2.8-3.5-6.9-3.5-10.2v-35.8H167V228c0,6.5,0.9,13.4,7.2,19.6c5.8,5.7,14.4,8.5,26.2,8.5
				c11.6,0,20.3-2.8,26.1-8.5c6.7-6.6,7.3-13.9,7.3-20.9v-31.4H233.4z"/>
		</g>
		<g>
			<path class="st3" d="M267.6,286.7h-23.1v-97.5h23.1v7.1c4-5,10.2-9.2,19.8-9.2c10,0,17.7,4.2,22.9,9.4c5.3,5.3,9.8,13.8,9.8,25
				c0,10.8-4.2,19.5-10.4,25.5c-7.2,7.1-15.6,8.9-22.1,8.9c-4.2,0-12.8-0.9-20-8.4V286.7z M271.3,210.9c-2.9,2.9-4.5,7.1-4.5,10.7
				c0,3.7,2,7.8,4.5,10.2c2.7,2.7,6.5,4.3,10.4,4.3c4,0,7.6-1.6,10.2-4.3c2.5-2.5,4.5-6.3,4.5-10.2c0-3.6-1.6-7.8-4.5-10.7
				c-2.6-2.7-6.2-4.3-10.2-4.3C277.8,206.6,274.1,208.2,271.3,210.9z"/>
		</g>
	</g>
	<g>
		<path d="M121.2,284.6c-1.2,0.6-2.9,1.2-5.1,1.2c-3.6,0-5.8-1.2-7.5-2.9c-2.4-2.3-3.3-4.8-3.3-7.8c0-3.7,1.5-6.4,3.3-8
			c2.1-1.9,4.6-2.7,7.5-2.7c1.4,0,3.2,0.2,5,1.3v4.7c-1.9-2.1-4.2-2.3-4.9-2.3c-4.1,0-6.8,3.4-6.8,7.1c0,4.5,3.5,7,6.9,7
			c1.9,0,3.6-0.8,4.8-2.2V284.6z"/>
		<path d="M134.3,263v22.4h-3.7V263H134.3z"/>
		<path d="M156.3,273.5c1.3,1.2,2.2,3,2.2,5.2c0,2.1-0.9,4-2.2,5.2c-1.1,1-2.9,1.9-5.4,1.9c-2.5,0-4.2-0.8-5.4-1.9
			c-1.3-1.2-2.2-3-2.2-5.2c0-2.2,0.9-4,2.2-5.2c1.1-1,2.9-1.9,5.4-1.9C153.4,271.6,155.1,272.5,156.3,273.5z M154.6,278.7
			c0-2.1-1.6-3.8-3.7-3.8c-2.1,0-3.7,1.7-3.7,3.8c0,2,1.6,3.7,3.7,3.7S154.6,280.8,154.6,278.7z"/>
		<path d="M171.3,272.1v7.5c0,0.7,0.1,1.7,0.8,2.3c0.5,0.4,1.2,0.7,1.9,0.7s1.4-0.3,1.9-0.7c0.7-0.7,0.8-1.6,0.8-2.3v-7.5h3.7v8.1
			c0,1.2-0.2,2.8-1.6,4.1c-1.2,1.1-3.2,1.5-4.8,1.5s-3.6-0.4-4.8-1.5c-1.5-1.3-1.6-2.9-1.6-4.1v-8.1H171.3z"/>
		<path d="M200.3,263h3.7v22.4h-3.7v-1.7c-1.4,1.9-3.1,2.1-4.1,2.1c-4.1,0-6.8-3.2-6.8-7.1c0-3.9,2.7-7.1,6.6-7.1c1,0,3,0.2,4.3,2.1
			V263z M193.3,278.7c0,2.1,1.5,3.8,3.7,3.8s3.7-1.7,3.7-3.8c0-2.1-1.5-3.7-3.7-3.7S193.3,276.6,193.3,278.7z"/>
	</g>
	<circle cx="86.3" cy="275.2" r="3.5"/>
	<circle cx="223.2" cy="275.2" r="3.5"/>
</g>
</svg>
