<svg width="21" height="20" viewBox="0 0 21 20" fill="none" xmlns="http://www.w3.org/2000/svg">
<path fill-rule="evenodd" clip-rule="evenodd" d="M15.2462 0.75H6.57723C3.55623 0.75 1.66223 2.889 1.66223 5.916V14.084C1.66223 17.111 3.54723 19.25 6.57723 19.25H15.2452C18.2762 19.25 20.1622 17.111 20.1622 14.084V5.916C20.1622 2.889 18.2762 0.75 15.2462 0.75Z" stroke="#5D82F5" stroke-width="1.5" stroke-linecap="round" stroke-linejoin="round"/>
<circle cx="10.9121" cy="13.5" r="1" fill="#5D82F5"/>
<path d="M8.91211 8V7.5C8.91211 6.39543 9.80754 5.5 10.9121 5.5V5.5V5.5C12.0167 5.5 12.9121 6.39543 12.9121 7.5V7.62132C12.9121 8.18393 12.6886 8.7235 12.2908 9.12132L10.9121 10.5" stroke="#5D82F5" stroke-width="1.5" stroke-linecap="round" stroke-linejoin="round"/>
</svg>
