<svg width="24" height="24" viewBox="0 0 24 24" fill="none" xmlns="http://www.w3.org/2000/svg">
<path d="M12 17.25C9.105 17.25 6.75 14.6572 6.75 11.4705V7.2795C6.75 4.09275 9.105 1.5 12 1.5C14.895 1.5 17.25 4.09275 17.25 7.2795V11.4705C17.25 14.6572 14.895 17.25 12 17.25ZM12 3C9.93225 3 8.25 4.92 8.25 7.2795V11.4705C8.25 13.83 9.93225 15.75 12 15.75C14.0677 15.75 15.75 13.83 15.75 11.4705V7.2795C15.75 4.92 14.0677 3 12 3Z" fill="#5D82F5"/>
<path d="M11.9999 20.2498C10.0463 20.3542 8.12304 19.7319 6.60087 18.5028C5.07871 17.2736 4.0653 15.5246 3.75594 13.5928C3.73386 13.3969 3.78981 13.2002 3.91167 13.0452C4.03353 12.8902 4.21151 12.7895 4.40709 12.7647C4.60267 12.74 4.80013 12.7932 4.95675 12.913C5.11336 13.0327 5.21653 13.2093 5.24394 13.4045C5.27244 13.6228 6.01644 18.7498 11.9999 18.7498C17.9834 18.7498 18.7274 13.6228 18.7559 13.4045C18.7833 13.2093 18.8865 13.0327 19.0431 12.913C19.1997 12.7932 19.3972 12.74 19.5928 12.7647C19.7884 12.7895 19.9663 12.8902 20.0882 13.0452C20.2101 13.2002 20.266 13.3969 20.2439 13.5928C19.9346 15.5246 18.9212 17.2736 17.399 18.5028C15.8768 19.7319 13.9536 20.3542 11.9999 20.2498Z" fill="#5D82F5"/>
<path d="M12 22.5C11.8011 22.5 11.6103 22.421 11.4697 22.2803C11.329 22.1397 11.25 21.9489 11.25 21.75V20.25C11.25 20.0511 11.329 19.8603 11.4697 19.7197C11.6103 19.579 11.8011 19.5 12 19.5C12.1989 19.5 12.3897 19.579 12.5303 19.7197C12.671 19.8603 12.75 20.0511 12.75 20.25V21.75C12.75 21.9489 12.671 22.1397 12.5303 22.2803C12.3897 22.421 12.1989 22.5 12 22.5Z" fill="#5D82F5"/>
</svg>
