<svg width="239" height="192" viewBox="0 0 239 192" fill="none" xmlns="http://www.w3.org/2000/svg">
<path d="M18.6602 4.3125H18.7676L22.1191 16H24.3857L28.5752 0.499023H26.0723L23.2041 12.6377H23.1182L19.8311 0.499023H17.5967L14.3203 12.6377H14.2344L11.3662 0.499023H8.86328L13.042 16H15.3193L18.6602 4.3125ZM40.1123 13.916H32.8936V0.499023H30.4873V16H40.1123V13.916ZM52.2725 16H54.8184L49.2217 0.499023H46.6221L41.0254 16H43.5283L44.9463 11.8105H50.8545L52.2725 16ZM47.8682 3.07715H47.9326L50.2422 9.87695H45.5586L47.8682 3.07715ZM58.8682 16V4.58105H58.9648L67 16H69.1699V0.499023H66.8281V11.9287H66.7422L58.707 0.499023H56.5264V16H58.8682Z" fill="#22215B"/>
<path fill-rule="evenodd" clip-rule="evenodd" d="M8 58.0634C8 54.6835 10.6844 52 14.0653 52H205.935C209.316 52 212 54.6835 212 58.0634V185.937C212 189.316 209.316 192 205.935 192H188.815C185.434 192 182.75 189.316 182.75 185.937V164.786C182.75 163.645 181.881 162.776 180.74 162.776H176.63V166.885C176.63 170.265 173.946 172.948 170.565 172.948H157.644L156.717 172.885L151.085 169.989C151.081 169.988 151.077 169.986 151.073 169.984C149.025 168.954 147.864 166.752 147.864 164.624V162.776H77.9498V163.817C77.9498 165.974 76.946 167.699 75.3242 168.857L75.2872 168.884L69.2733 172.783L68.1699 172.948H52.9883C49.6074 172.948 46.923 170.265 46.923 166.885V162.776H40.2293C39.0881 162.776 38.2193 163.645 38.2193 164.786V185.937C38.2193 189.316 35.5349 192 32.154 192H14.0653C10.6844 192 8 189.316 8 185.937V58.0634ZM50.9783 162.776V166.885C50.9783 168.026 51.847 168.894 52.9883 168.894H66.1422V162.776H50.9783ZM70.1975 162.776V167.352L72.9996 165.535C73.6161 165.083 73.8946 164.553 73.8946 163.817V162.776H70.1975ZM180.74 158.722C184.121 158.722 186.805 161.406 186.805 164.786V185.937C186.805 187.077 187.674 187.946 188.815 187.946H205.935C207.076 187.946 207.945 187.077 207.945 185.937V58.0634C207.945 56.9225 207.076 56.054 205.935 56.054H14.0653C12.924 56.054 12.0553 56.9225 12.0553 58.0634V185.937C12.0553 187.077 12.924 187.946 14.0653 187.946H32.154C33.2952 187.946 34.164 187.077 34.164 185.937V164.786C34.164 161.406 36.8484 158.722 40.2293 158.722H180.74ZM151.92 162.776V164.624C151.92 165.399 152.37 166.099 152.898 166.363L152.919 166.374L155.617 167.761V162.776H151.92ZM159.672 162.776V168.894H170.565C171.706 168.894 172.575 168.026 172.575 166.885V162.776H159.672ZM41.6829 82.6943C40.5416 82.6943 39.6728 83.5628 39.6728 84.7037V139.114C39.6728 140.255 40.5416 141.124 41.6829 141.124H180.74C181.881 141.124 182.75 140.255 182.75 139.114V84.7037C182.75 83.5628 181.881 82.6943 180.74 82.6943H41.6829ZM35.6176 84.7037C35.6176 81.3238 38.3019 78.6402 41.6829 78.6402H180.74C184.121 78.6402 186.805 81.3238 186.805 84.7037V139.114C186.805 142.494 184.121 145.178 180.74 145.178H41.6829C38.3019 145.178 35.6176 142.494 35.6176 139.114V84.7037Z" fill="#B0C0D0"/>
<path fill-rule="evenodd" clip-rule="evenodd" d="M92.0186 114.028C89.9203 114.028 88.0443 115.79 88.0443 117.98V126.02C88.0443 128.238 89.7877 129.972 92.0186 129.972H103.981C106.212 129.972 107.956 128.238 107.956 126.02V117.98C107.956 115.762 106.212 114.028 103.981 114.028H92.0186ZM85 117.98C85 114.061 88.2972 111 92.0186 111H103.981C107.894 111 111 114.09 111 117.98V126.02C111 129.91 107.894 133 103.981 133H92.0186C88.1064 133 85 129.91 85 126.02V117.98Z" fill="#415EB6"/>
<path fill-rule="evenodd" clip-rule="evenodd" d="M124.012 118.031C121.945 118.031 120.042 119.928 120.042 121.988V126.012C120.042 128.233 121.783 129.969 124.012 129.969H129.988C132.217 129.969 133.958 128.233 133.958 126.012V121.988C133.958 119.767 132.217 118.031 129.988 118.031H124.012ZM117 121.988C117 118.254 120.265 115 124.012 115H129.988C133.896 115 137 118.093 137 121.988V126.012C137 129.907 133.896 133 129.988 133H124.012C120.104 133 117 129.907 117 126.012V121.988Z" fill="#B0C0D0"/>
<path fill-rule="evenodd" clip-rule="evenodd" d="M150.012 118.031C147.812 118.031 146.042 119.899 146.042 121.988V126.012C146.042 128.233 147.783 129.969 150.012 129.969H155.988C158.217 129.969 159.958 128.233 159.958 126.012V121.988C159.958 119.767 158.217 118.031 155.988 118.031H150.012ZM143 121.988C143 118.283 146.075 115 150.012 115H155.988C159.897 115 163 118.093 163 121.988V126.012C163 129.907 159.897 133 155.988 133H150.012C146.104 133 143 129.907 143 126.012V121.988Z" fill="#B0C0D0"/>
<path fill-rule="evenodd" clip-rule="evenodd" d="M64.0333 125.997C62.9439 125.997 62.0171 126.918 62.0171 128C62.0171 129.082 62.9439 130.003 64.0333 130.003H73.9667C75.0561 130.003 75.9828 129.082 75.9828 128C75.9828 126.918 75.0561 125.997 73.9667 125.997H64.0333ZM59 128C59 125.262 61.2776 123 64.0333 123H73.9667C76.7224 123 79 125.262 79 128C79 130.738 76.7224 133 73.9667 133H64.0333C61.2776 133 59 130.738 59 128Z" fill="#B0C0D0"/>
<path fill-rule="evenodd" clip-rule="evenodd" d="M81.1508 26H1.14331C0.511879 26 0 26.4562 0 27.019C0 27.5817 0.511879 28.038 1.14331 28.038H78.8642V123H97.8567C98.4881 123 99 122.544 99 121.981C99 121.418 98.4881 120.962 97.8567 120.962H81.1508V26Z" fill="#B0C0D0"/>
<path d="M213.5 77C227.583 77 239 65.8071 239 52C239 38.1929 227.583 27 213.5 27C199.417 27 188 38.1929 188 52C188 65.8071 199.417 77 213.5 77Z" fill="#22215B"/>
<g clip-path="url(#clip0_0_1)">
<path d="M209.034 38.7447L209.465 38.1967L208.809 38.4329C206.247 39.3555 204.032 41.0109 202.419 43.145L202.177 43.4656H202.579H206.506H206.65L206.695 43.3283C207.226 41.7209 207.989 40.0726 209.034 38.7447ZM201.418 44.876H201.298L201.242 44.9819C200.341 46.6694 199.78 48.5695 199.648 50.5787L199.634 50.7918H199.847H205.28H205.474L205.48 50.5978C205.538 48.6855 205.779 46.83 206.186 45.1224L206.245 44.876H205.992H201.418ZM201.242 58.0121L201.298 58.118H201.418H205.992H206.245L206.186 57.8715C205.779 56.1639 205.538 54.3145 205.48 52.4022L205.474 52.2082H205.28H199.847H199.634L199.648 52.4213C199.78 54.4307 200.342 56.3246 201.242 58.0121ZM202.579 59.5344H202.177L202.419 59.855C204.032 61.9891 206.247 63.6445 208.809 64.5671L209.465 64.8033L209.034 64.2553C207.989 62.9273 207.226 61.2787 206.695 59.6717L206.65 59.5344H206.505H202.579ZM212.528 65.219L212.792 65.3077V65.0294V59.7344V59.5344H212.592H208.428H208.141L208.24 59.8033C208.613 60.8187 209.154 61.9892 209.863 62.9953C210.569 63.9984 211.456 64.8588 212.528 65.219ZM212.592 58.118H212.792V57.918V52.4082V52.2082H212.592H207.097H206.891L206.897 52.4146C206.96 54.3726 207.223 56.2553 207.669 57.9683L207.708 58.118H207.862H212.592ZM212.592 50.7918H212.792V50.5918V45.082V44.882H212.592H207.862H207.708L207.669 45.0317C207.223 46.7447 206.96 48.6274 206.897 50.5854L206.891 50.7918H207.097H212.592ZM212.592 43.4656H212.792V43.2656V37.9706V37.6923L212.528 37.781C211.456 38.1412 210.569 39.0016 209.863 40.0048C209.154 41.0108 208.613 42.1813 208.24 43.1967L208.141 43.4656H208.428H212.592ZM225.758 44.9879L225.702 44.882H225.582H221.008H220.755L220.814 45.1285C221.221 46.8361 221.462 48.6855 221.52 50.5978L221.526 50.7918H221.72H227.153H227.366L227.352 50.5787C227.22 48.5693 226.659 46.6754 225.758 44.9879ZM224.421 43.4656H224.823L224.581 43.145C222.968 41.0109 220.753 39.3555 218.191 38.4329L217.535 38.1967L217.966 38.7447C219.011 40.0727 219.774 41.7213 220.305 43.3283L220.35 43.4656H220.495H224.421ZM214.472 37.781L214.208 37.6923V37.9706V43.2656V43.4656H214.408H218.572H218.859L218.76 43.1967C218.387 42.1813 217.846 41.0108 217.137 40.0047C216.431 39.0016 215.544 38.1412 214.472 37.781ZM214.408 44.882H214.208V45.082V50.5918V50.7918H214.408H219.903H220.109L220.103 50.5854C220.04 48.6274 219.777 46.7447 219.331 45.0317L219.292 44.882H219.138H214.408ZM214.408 52.2021H214.208V52.4021V57.918V58.118H214.408H219.138H219.292L219.331 57.9683C219.777 56.2552 220.04 54.3665 220.103 52.4085L220.109 52.2021H219.903H214.408ZM214.208 65.0294V65.3077L214.472 65.219C215.544 64.8587 216.431 63.9967 217.137 62.9921C217.846 61.9845 218.387 60.8126 218.76 59.7973L218.859 59.5283H218.572H214.408H214.208V59.7283V65.0294ZM217.966 64.2553L217.535 64.8033L218.191 64.5671C220.754 63.6444 222.968 61.9829 224.581 59.8489L224.823 59.5283H224.421H220.495H220.35L220.305 59.6656C219.774 61.2732 219.011 62.9276 217.966 64.2553ZM225.582 58.118H225.702L225.758 58.0121C226.659 56.3245 227.22 54.4245 227.352 52.4153L227.366 52.2021H227.153H221.72H221.526L221.52 52.3961C221.462 54.3085 221.221 56.164 220.814 57.8715L220.755 58.118H221.008H225.582ZM198.2 51.5C198.2 43.0763 205.076 36.2 213.5 36.2C221.924 36.2 228.8 43.0758 228.8 51.5C228.8 59.9237 221.924 66.8 213.5 66.8C205.076 66.8 198.2 59.9242 198.2 51.5Z" fill="white" stroke="#22215B" stroke-width="0.4"/>
</g>
<defs>
<clipPath id="clip0_0_1">
<rect width="31" height="31" fill="white" transform="translate(198 36)"/>
</clipPath>
</defs>
</svg>
