<svg width="231" height="165" viewBox="0 0 231 165" fill="none" xmlns="http://www.w3.org/2000/svg">
<path fill-rule="evenodd" clip-rule="evenodd" d="M0 31.0634C0 27.6835 2.68437 25 6.06529 25H197.935C201.316 25 204 27.6835 204 31.0634V158.937C204 162.316 201.316 165 197.935 165H180.815C177.434 165 174.75 162.316 174.75 158.937V137.786C174.75 136.645 173.881 135.776 172.74 135.776H168.63V139.885C168.63 143.265 165.946 145.948 162.565 145.948H149.644L148.717 145.885L143.085 142.989C143.081 142.988 143.077 142.986 143.073 142.984C141.025 141.954 139.864 139.752 139.864 137.624V135.776H69.9498V136.817C69.9498 138.974 68.946 140.699 67.3242 141.857L67.2872 141.884L61.2733 145.783L60.1699 145.948H44.9883C41.6074 145.948 38.923 143.265 38.923 139.885V135.776H32.2293C31.0881 135.776 30.2193 136.645 30.2193 137.786V158.937C30.2193 162.316 27.5349 165 24.154 165H6.06529C2.68437 165 0 162.316 0 158.937V31.0634ZM42.9783 135.776V139.885C42.9783 141.026 43.847 141.894 44.9883 141.894H58.1422V135.776H42.9783ZM62.1975 135.776V140.352L64.9996 138.535C65.6161 138.083 65.8946 137.553 65.8946 136.817V135.776H62.1975ZM172.74 131.722C176.121 131.722 178.805 134.406 178.805 137.786V158.937C178.805 160.077 179.674 160.946 180.815 160.946H197.935C199.076 160.946 199.945 160.077 199.945 158.937V31.0634C199.945 29.9225 199.076 29.054 197.935 29.054H6.06529C4.92404 29.054 4.05527 29.9225 4.05527 31.0634V158.937C4.05527 160.077 4.92404 160.946 6.06529 160.946H24.154C25.2952 160.946 26.164 160.077 26.164 158.937V137.786C26.164 134.406 28.8484 131.722 32.2293 131.722H172.74ZM143.92 135.776V137.624C143.92 138.399 144.37 139.099 144.898 139.363L144.919 139.374L147.617 140.761V135.776H143.92ZM151.672 135.776V141.894H162.565C163.706 141.894 164.575 141.026 164.575 139.885V135.776H151.672ZM33.6829 55.6943C32.5416 55.6943 31.6728 56.5628 31.6728 57.7037V112.114C31.6728 113.255 32.5416 114.124 33.6829 114.124H172.74C173.881 114.124 174.75 113.255 174.75 112.114V57.7037C174.75 56.5628 173.881 55.6943 172.74 55.6943H33.6829ZM27.6176 57.7037C27.6176 54.3238 30.3019 51.6402 33.6829 51.6402H172.74C176.121 51.6402 178.805 54.3238 178.805 57.7037V112.114C178.805 115.494 176.121 118.178 172.74 118.178H33.6829C30.3019 118.178 27.6176 115.494 27.6176 112.114V57.7037Z" fill="#415EB6"/>
<path fill-rule="evenodd" clip-rule="evenodd" d="M84.0186 87.0278C81.9203 87.0278 80.0443 88.7904 80.0443 90.9805V99.0195C80.0443 101.238 81.7877 102.972 84.0186 102.972H95.9814C98.2123 102.972 99.9557 101.238 99.9557 99.0195V90.9805C99.9557 88.7617 98.2123 87.0278 95.9814 87.0278H84.0186ZM77 90.9805C77 87.0608 80.2972 84 84.0186 84H95.9814C99.8936 84 103 87.0895 103 90.9805V99.0195C103 102.91 99.8936 106 95.9814 106H84.0186C80.1064 106 77 102.91 77 99.0195V90.9805Z" fill="#B0C0D0"/>
<path fill-rule="evenodd" clip-rule="evenodd" d="M116.012 91.0311C113.945 91.0311 112.042 92.9278 112.042 94.988V99.0119C112.042 101.233 113.783 102.969 116.012 102.969H121.988C124.217 102.969 125.958 101.233 125.958 99.0119V94.988C125.958 92.7669 124.217 91.0311 121.988 91.0311H116.012ZM109 94.988C109 91.2538 112.265 88 116.012 88H121.988C125.896 88 129 91.0929 129 94.988V99.0119C129 102.907 125.896 106 121.988 106H116.012C112.104 106 109 102.907 109 99.0119V94.988Z" fill="#B0C0D0"/>
<path fill-rule="evenodd" clip-rule="evenodd" d="M142.012 91.0311C139.812 91.0311 138.042 92.8988 138.042 94.988V99.0119C138.042 101.233 139.783 102.969 142.012 102.969H147.988C150.217 102.969 151.958 101.233 151.958 99.0119V94.988C151.958 92.7669 150.217 91.0311 147.988 91.0311H142.012ZM135 94.988C135 91.2828 138.075 88 142.012 88H147.988C151.897 88 155 91.0929 155 94.988V99.0119C155 102.907 151.897 106 147.988 106H142.012C138.104 106 135 102.907 135 99.0119V94.988Z" fill="#B0C0D0"/>
<path fill-rule="evenodd" clip-rule="evenodd" d="M56.0333 98.9972C54.9439 98.9972 54.0171 99.9178 54.0171 101C54.0171 102.082 54.9439 103.003 56.0333 103.003H65.9667C67.0561 103.003 67.9828 102.082 67.9828 101C67.9828 99.9178 67.0561 98.9972 65.9667 98.9972H56.0333ZM51 101C51 98.2625 53.2776 96 56.0333 96H65.9667C68.7224 96 71 98.2625 71 101C71 103.738 68.7224 106 65.9667 106H56.0333C53.2776 106 51 103.738 51 101Z" fill="#B0C0D0"/>
<path d="M205.5 50C219.583 50 231 38.8071 231 25C231 11.1929 219.583 0 205.5 0C191.417 0 180 11.1929 180 25C180 38.8071 191.417 50 205.5 50Z" fill="#22215B"/>
<path d="M202.775 32.4688L202.793 32.4513L202.806 32.4307C203.043 32.0762 203.67 32.0508 203.933 32.577L203.963 32.6364L204.018 32.6732C204.207 32.7996 204.296 32.981 204.296 33.1792C204.296 33.383 204.201 33.625 203.98 33.8464L200.691 37.1354C198.538 39.2882 195.061 39.2882 192.908 37.1354C190.755 34.9826 190.755 31.5057 192.908 29.3529L192.731 29.1761L192.908 29.3529L199.486 22.7747C201.639 20.622 205.116 20.622 207.269 22.7747L207.286 22.7922L207.307 22.806C207.496 22.9324 207.585 23.1138 207.585 23.3121C207.585 23.5158 207.49 23.7578 207.269 23.9792L207.251 23.9967L207.237 24.0173C207.111 24.207 206.93 24.2955 206.731 24.2955C206.528 24.2955 206.286 24.2006 206.064 23.9792C204.582 22.4967 202.346 22.4967 200.864 23.9792L194.286 30.5573C192.803 32.0398 192.803 34.2754 194.286 35.7579C195.768 37.2404 198.004 37.2404 199.486 35.7579L202.775 32.4688Z" fill="white" stroke="#22215B" stroke-width="0.5"/>
<path d="M205.2 18.2668L205.182 18.2493L205.162 18.2355C204.972 18.1091 204.884 17.9277 204.884 17.7295C204.884 17.5258 204.978 17.2838 205.2 17.0624L209.181 13.0809C211.334 10.9281 214.811 10.9281 216.964 13.0809C219.116 15.2333 219.117 18.7095 216.965 20.8624C216.965 20.8627 216.964 20.8631 216.964 20.8634L209.869 27.7856L209.869 27.7856L209.866 27.7878C207.714 29.9405 204.237 29.9405 202.084 27.7878L202.066 27.7703L202.046 27.7565C201.856 27.6301 201.768 27.4487 201.768 27.2505C201.768 27.0467 201.863 26.8047 202.084 26.5833L202.101 26.5658L202.115 26.5452C202.242 26.3556 202.423 26.2671 202.621 26.2671C202.825 26.2671 203.067 26.3619 203.288 26.5833C204.771 28.0658 207.006 28.0658 208.489 26.5833L215.586 19.4859C217.069 18.0034 217.069 15.7678 215.586 14.2853C214.104 12.8028 211.868 12.8028 210.386 14.2853L206.404 18.2668L206.387 18.2843L206.373 18.3049C206.247 18.4945 206.065 18.5831 205.867 18.5831C205.663 18.5831 205.421 18.4882 205.2 18.2668Z" fill="white" stroke="#22215B" stroke-width="0.5"/>
<path d="M211.258 31.2572L211.275 31.2397L211.289 31.2191C211.415 31.0294 211.597 30.9409 211.795 30.9409C211.999 30.9409 212.241 31.0358 212.462 31.2572L215.924 34.7194L215.942 34.7369L215.962 34.7506C216.152 34.877 216.241 35.0584 216.241 35.2567C216.241 35.4604 216.146 35.7024 215.924 35.9238L215.907 35.9413L215.893 35.9619C215.767 36.1515 215.585 36.24 215.387 36.24C215.183 36.24 214.941 36.1452 214.72 35.9238L211.258 32.4616L211.24 32.4441L211.22 32.4304C211.03 32.3039 210.941 32.1226 210.941 31.9243C210.941 31.7206 211.036 31.4786 211.258 31.2572Z" fill="white" stroke="#22215B" stroke-width="0.5"/>
<path d="M198.613 18.6127L198.596 18.6302L198.582 18.6508C198.456 18.8405 198.274 18.929 198.076 18.929C197.872 18.929 197.63 18.8341 197.409 18.6127L193.947 15.1506L193.929 15.1331L193.909 15.1193C193.719 14.9929 193.631 14.8115 193.631 14.6133C193.631 14.4095 193.725 14.1676 193.947 13.9462L193.964 13.9286L193.978 13.9081C194.105 13.7184 194.286 13.6299 194.484 13.6299C194.688 13.6299 194.93 13.7248 195.151 13.9462L198.613 17.4083L198.631 17.4258L198.652 17.4396C198.841 17.566 198.93 17.7474 198.93 17.9456C198.93 18.1493 198.835 18.3913 198.613 18.6127Z" fill="white" stroke="#22215B" stroke-width="0.5"/>
<path d="M214.197 28.7334H217.66C218.214 28.7334 218.621 29.1408 218.621 29.6951C218.621 30.2495 218.214 30.6569 217.66 30.6569H214.197C213.643 30.6569 213.236 30.2495 213.236 29.6951C213.236 29.1408 213.643 28.7334 214.197 28.7334Z" fill="white" stroke="#22215B" stroke-width="0.5"/>
<path d="M201.31 15.6739C201.31 16.2283 200.902 16.6357 200.348 16.6357C199.793 16.6357 199.386 16.2283 199.386 15.6739V12.2117C199.386 11.6574 199.793 11.25 200.348 11.25C200.902 11.25 201.31 11.6574 201.31 12.2117V15.6739Z" fill="white" stroke="#22215B" stroke-width="0.5"/>
<path d="M195.674 21.3098H192.212C192.027 21.3098 191.782 21.2128 191.579 21.0286C191.38 20.8474 191.25 20.6075 191.25 20.348C191.25 19.7936 191.657 19.3862 192.212 19.3862H195.674C196.228 19.3862 196.636 19.7936 196.636 20.348C196.636 20.9024 196.228 21.3098 195.674 21.3098Z" fill="white" stroke="#22215B" stroke-width="0.5"/>
<path d="M208.562 34.1962C208.562 33.6418 208.969 33.2344 209.523 33.2344C210.078 33.2344 210.485 33.6418 210.485 34.1962V37.6583C210.485 38.2127 210.078 38.6201 209.523 38.6201C208.969 38.6201 208.562 38.2127 208.562 37.6583V34.1962Z" fill="white" stroke="#22215B" stroke-width="0.5"/>
</svg>
