<svg width="237" height="190" viewBox="0 0 237 190" fill="none" xmlns="http://www.w3.org/2000/svg">
<path d="M7.74219 16V2.57227H12.4795V0.499023H0.587891V2.57227H5.33594V16H7.74219ZM13.167 20.2109C15.5088 20.2109 16.626 19.3301 17.5928 16.5908L21.8252 4.69922H19.376L16.5186 13.8945H16.4756L13.6182 4.69922H11.1045L15.1865 16.0107C15.1865 16.0215 14.9824 16.6875 14.9824 16.709C14.6279 17.8691 14.0479 18.3203 12.9736 18.3203C12.7803 18.3203 12.3936 18.3203 12.2217 18.2773V20.1572C12.3936 20.1895 12.9736 20.2109 13.167 20.2109ZM29.0762 4.5166C27.4434 4.5166 26.1436 5.34375 25.4775 6.64355H25.4346V4.69922H23.1895V19.7383H25.5098V14.1416H25.5635C26.208 15.3984 27.4971 16.1934 29.1191 16.1934C31.9551 16.1934 33.835 13.9268 33.835 10.3496C33.835 6.77246 31.9443 4.5166 29.0762 4.5166ZM28.4639 14.2275C26.6807 14.2275 25.499 12.7021 25.499 10.3496C25.499 8.01855 26.6914 6.47168 28.4639 6.47168C30.3008 6.47168 31.4502 7.98633 31.4502 10.3496C31.4502 12.7236 30.3008 14.2275 28.4639 14.2275ZM43.1162 12.6807C42.8047 13.6689 41.8271 14.335 40.5059 14.335C38.6475 14.335 37.4658 13.0352 37.4658 11.0693V10.9297H45.4473V10.1348C45.4473 6.70801 43.4922 4.49512 40.3555 4.49512C37.165 4.49512 35.124 6.8584 35.124 10.4033C35.124 13.9697 37.1328 16.2148 40.4521 16.2148C43.041 16.2148 44.9961 14.7432 45.3184 12.6807H43.1162ZM40.3555 6.36426C41.9775 6.36426 43.0732 7.57812 43.127 9.30762H37.4766C37.5947 7.59961 38.7334 6.36426 40.3555 6.36426ZM54.3955 10.7578V8.66309H47.3486V10.7578H54.3955ZM63.6123 16.2578C67.1787 16.2578 69.6064 14.3779 70.1973 11.1768H67.8018C67.3184 13.0459 65.7822 14.1523 63.623 14.1523C60.7764 14.1523 58.9717 11.8643 58.9717 8.24414C58.9717 4.65625 60.7979 2.34668 63.6123 2.34668C65.7178 2.34668 67.3721 3.64648 67.8018 5.63379H70.1865C69.7783 2.40039 67.125 0.241211 63.6123 0.241211C59.2832 0.241211 56.5117 3.33496 56.5117 8.24414C56.5117 13.1855 59.2617 16.2578 63.6123 16.2578Z" fill="#22215B"/>
<path fill-rule="evenodd" clip-rule="evenodd" d="M16 56.0634C16 52.6835 18.6844 50 22.0653 50H213.935C217.316 50 220 52.6835 220 56.0634V183.937C220 187.316 217.316 190 213.935 190H196.815C193.434 190 190.75 187.316 190.75 183.937V162.786C190.75 161.645 189.881 160.776 188.74 160.776H184.63V164.885C184.63 168.265 181.946 170.948 178.565 170.948H165.644L164.717 170.885L159.085 167.989C159.081 167.988 159.077 167.986 159.073 167.984C157.025 166.954 155.864 164.752 155.864 162.624V160.776H85.9498V161.817C85.9498 163.974 84.946 165.699 83.3242 166.857L83.2872 166.884L77.2733 170.783L76.1699 170.948H60.9883C57.6074 170.948 54.923 168.265 54.923 164.885V160.776H48.2293C47.0881 160.776 46.2193 161.645 46.2193 162.786V183.937C46.2193 187.316 43.5349 190 40.154 190H22.0653C18.6844 190 16 187.316 16 183.937V56.0634ZM58.9783 160.776V164.885C58.9783 166.026 59.847 166.894 60.9883 166.894H74.1422V160.776H58.9783ZM78.1975 160.776V165.352L80.9996 163.535C81.6161 163.083 81.8946 162.553 81.8946 161.817V160.776H78.1975ZM188.74 156.722C192.121 156.722 194.805 159.406 194.805 162.786V183.937C194.805 185.077 195.674 185.946 196.815 185.946H213.935C215.076 185.946 215.945 185.077 215.945 183.937V56.0634C215.945 54.9225 215.076 54.054 213.935 54.054H22.0653C20.924 54.054 20.0553 54.9225 20.0553 56.0634V183.937C20.0553 185.077 20.924 185.946 22.0653 185.946H40.154C41.2952 185.946 42.164 185.077 42.164 183.937V162.786C42.164 159.406 44.8484 156.722 48.2293 156.722H188.74ZM159.92 160.776V162.624C159.92 163.399 160.37 164.099 160.898 164.363L160.919 164.374L163.617 165.761V160.776H159.92ZM167.672 160.776V166.894H178.565C179.706 166.894 180.575 166.026 180.575 164.885V160.776H167.672ZM49.6829 80.6943C48.5416 80.6943 47.6728 81.5628 47.6728 82.7037V137.114C47.6728 138.255 48.5416 139.124 49.6829 139.124H188.74C189.881 139.124 190.75 138.255 190.75 137.114V82.7037C190.75 81.5628 189.881 80.6943 188.74 80.6943H49.6829ZM43.6176 82.7037C43.6176 79.3238 46.3019 76.6402 49.6829 76.6402H188.74C192.121 76.6402 194.805 79.3238 194.805 82.7037V137.114C194.805 140.494 192.121 143.178 188.74 143.178H49.6829C46.3019 143.178 43.6176 140.494 43.6176 137.114V82.7037Z" fill="#B0C0D0"/>
<path fill-rule="evenodd" clip-rule="evenodd" d="M100.019 112.028C97.9203 112.028 96.0443 113.79 96.0443 115.98V124.02C96.0443 126.238 97.7877 127.972 100.019 127.972H111.981C114.212 127.972 115.956 126.238 115.956 124.02V115.98C115.956 113.762 114.212 112.028 111.981 112.028H100.019ZM93 115.98C93 112.061 96.2972 109 100.019 109H111.981C115.894 109 119 112.09 119 115.98V124.02C119 127.91 115.894 131 111.981 131H100.019C96.1064 131 93 127.91 93 124.02V115.98Z" fill="#B0C0D0"/>
<path fill-rule="evenodd" clip-rule="evenodd" d="M132.012 116.031C129.945 116.031 128.042 117.928 128.042 119.988V124.012C128.042 126.233 129.783 127.969 132.012 127.969H137.988C140.217 127.969 141.958 126.233 141.958 124.012V119.988C141.958 117.767 140.217 116.031 137.988 116.031H132.012ZM125 119.988C125 116.254 128.265 113 132.012 113H137.988C141.896 113 145 116.093 145 119.988V124.012C145 127.907 141.896 131 137.988 131H132.012C128.104 131 125 127.907 125 124.012V119.988Z" fill="#B0C0D0"/>
<path fill-rule="evenodd" clip-rule="evenodd" d="M158.012 116.031C155.812 116.031 154.042 117.899 154.042 119.988V124.012C154.042 126.233 155.783 127.969 158.012 127.969H163.988C166.217 127.969 167.958 126.233 167.958 124.012V119.988C167.958 117.767 166.217 116.031 163.988 116.031H158.012ZM151 119.988C151 116.283 154.075 113 158.012 113H163.988C167.897 113 171 116.093 171 119.988V124.012C171 127.907 167.897 131 163.988 131H158.012C154.104 131 151 127.907 151 124.012V119.988Z" fill="#B0C0D0"/>
<path fill-rule="evenodd" clip-rule="evenodd" d="M72.0333 123.997C70.9439 123.997 70.0171 124.918 70.0171 126C70.0171 127.082 70.9439 128.003 72.0333 128.003H81.9667C83.0561 128.003 83.9828 127.082 83.9828 126C83.9828 124.918 83.0561 123.997 81.9667 123.997H72.0333ZM67 126C67 123.262 69.2776 121 72.0333 121H81.9667C84.7224 121 87 123.262 87 126C87 128.738 84.7224 131 81.9667 131H72.0333C69.2776 131 67 128.738 67 126Z" fill="#415EB6"/>
<path fill-rule="evenodd" clip-rule="evenodd" d="M0 26.0138C0 25.4539 0.453779 25 1.01354 25H77V125.986C77 126.546 76.5462 127 75.9865 127C75.4267 127 74.9729 126.546 74.9729 125.986V27.0276H1.01354C0.453779 27.0276 0 26.5737 0 26.0138Z" fill="#B0C0D0"/>
<path d="M211.5 71C225.583 71 237 59.8071 237 46C237 32.1929 225.583 21 211.5 21C197.417 21 186 32.1929 186 46C186 59.8071 197.417 71 211.5 71Z" fill="#22215B"/>
<path d="M213.601 46.3576C213.224 46.3576 212.87 46.5016 212.603 46.7629L210.128 49.1897L208.151 47.2515L210.626 44.8248C211.177 44.2852 211.177 43.4073 210.626 42.8678C210.36 42.6064 210.005 42.4625 209.628 42.4625C209.251 42.4625 208.897 42.6064 208.63 42.8678L206.155 45.2945L204.83 43.9953C204.654 43.823 204.369 43.823 204.193 43.9953L200.665 47.4542C200.612 47.5057 200.573 47.5693 200.552 47.6391L198.925 52.9352L197.278 54.5497C196.241 55.5671 196.241 57.2224 197.278 58.2397L197.781 58.7322L195.694 60.7776C195.519 60.9501 195.519 61.2296 195.694 61.402C195.782 61.4882 195.898 61.5313 196.013 61.5313C196.128 61.5313 196.243 61.4882 196.331 61.402L198.418 59.3566L198.92 59.8492C199.439 60.3578 200.12 60.6121 200.802 60.6121C201.483 60.6121 202.165 60.3579 202.684 59.8492L204.331 58.2347L209.733 56.6398C209.804 56.6187 209.869 56.5807 209.921 56.5292L213.449 53.0703C213.625 52.8978 213.625 52.6183 213.449 52.4459L212.124 51.1467L214.599 48.7199C215.15 48.1803 215.15 47.3024 214.599 46.7629C214.333 46.5016 213.978 46.3576 213.601 46.3576ZM209.267 43.4921C209.466 43.2967 209.79 43.2968 209.989 43.4921C210.086 43.5867 210.139 43.7125 210.139 43.8462C210.139 43.98 210.086 44.1058 209.989 44.2003L207.514 46.6271L206.792 45.9188L209.267 43.4921ZM209.364 55.8263L203.962 57.4213C203.891 57.4423 203.826 57.4804 203.774 57.5318L202.047 59.2248C201.36 59.8979 200.243 59.8979 199.557 59.2248L197.915 57.6153C197.229 56.9422 197.229 55.8471 197.915 55.174L199.642 53.4811C199.695 53.4295 199.733 53.3659 199.755 53.2961L201.382 48L202.363 47.0375L210.346 54.8637L209.364 55.8263ZM210.983 54.2394L203 46.4131L204.511 44.9319L212.494 52.7581L210.983 54.2394ZM213.962 48.0956L211.487 50.5223L210.765 49.8141L213.24 47.3873C213.337 47.2928 213.465 47.2407 213.601 47.2407C213.738 47.2407 213.866 47.2928 213.962 47.3874C214.059 47.4819 214.112 47.6077 214.112 47.7415C214.112 47.8752 214.059 48.0011 213.962 48.0956ZM227.21 30.5042C227.034 30.332 226.749 30.3319 226.573 30.5042L224.487 32.5496L223.985 32.057C222.947 31.0399 221.259 31.0397 220.221 32.0571L218.574 33.6716L213.172 35.2665C213.101 35.2876 213.036 35.3256 212.983 35.3771L209.455 38.836C209.28 39.0084 209.28 39.2879 209.455 39.4604L218.075 47.911C218.16 47.9938 218.274 48.0403 218.393 48.0403C218.513 48.0403 218.627 47.9938 218.712 47.911L222.24 44.4521C222.293 44.4005 222.331 44.337 222.353 44.2671L223.98 38.971L225.626 37.3565C226.664 36.3392 226.664 34.6838 225.626 33.6665L225.124 33.1739L227.21 31.1285C227.386 30.9562 227.386 30.6766 227.21 30.5042ZM218.393 46.9744L210.411 39.1481L211.922 37.6668L219.904 45.4932L218.393 46.9744ZM224.989 36.7322L223.263 38.4252C223.21 38.4767 223.171 38.5403 223.15 38.6101L221.523 43.9063L220.541 44.8688L212.558 37.0425L213.54 36.08L218.942 34.485C219.013 34.464 219.078 34.4259 219.131 34.3744L220.858 32.6814C221.544 32.0083 222.661 32.0082 223.348 32.6814L224.989 34.291C225.676 34.964 225.676 36.0592 224.989 36.7322Z" fill="white"/>
</svg>
