<svg width="182" height="175" viewBox="0 0 182 175" fill="none" xmlns="http://www.w3.org/2000/svg">
<rect x="2" y="2" width="178" height="171" rx="4" stroke="#B0C0D0" stroke-width="4"/>
<path fill-rule="evenodd" clip-rule="evenodd" d="M124.22 81.2574C123.461 81.2574 122.846 81.8137 122.846 82.5V87.4005C122.846 88.0868 123.461 88.6431 124.22 88.6431H129.064C129.823 88.6431 130.438 88.0868 130.438 87.4005V82.5C130.438 81.8137 129.823 81.2574 129.064 81.2574H124.22ZM120.25 82.5C120.25 80.5179 122.028 78.9111 124.22 78.9111H129.064C131.257 78.9111 133.034 80.5179 133.034 82.5V87.4005C133.034 89.3826 131.257 90.9893 129.064 90.9893H124.22C122.028 90.9893 120.25 89.3826 120.25 87.4005V82.5Z" fill="#22215B"/>
<path d="M126.784 86.1065C127.569 86.1065 128.205 85.5312 128.205 84.8215C128.205 84.1119 127.569 83.5366 126.784 83.5366C126 83.5366 125.364 84.1119 125.364 84.8215C125.364 85.5312 126 86.1065 126.784 86.1065Z" fill="#22215B"/>
<path fill-rule="evenodd" clip-rule="evenodd" d="M124.22 103.358C123.461 103.358 122.846 103.914 122.846 104.6V109.501C122.846 110.187 123.461 110.743 124.22 110.743H129.064C129.823 110.743 130.438 110.187 130.438 109.501V104.6C130.438 103.914 129.823 103.358 129.064 103.358H124.22ZM120.25 104.6C120.25 102.618 122.028 101.011 124.22 101.011H129.064C131.257 101.011 133.034 102.618 133.034 104.6V109.501C133.034 111.483 131.256 113.089 129.064 113.089H124.22C122.028 113.089 120.25 111.483 120.25 109.501V104.6Z" fill="#22215B"/>
<path d="M126.784 108.207C127.569 108.207 128.205 107.632 128.205 106.922C128.205 106.212 127.569 105.637 126.784 105.637C126 105.637 125.364 106.212 125.364 106.922C125.364 107.632 126 108.207 126.784 108.207Z" fill="#22215B"/>
<path fill-rule="evenodd" clip-rule="evenodd" d="M148.652 81.2574C147.893 81.2574 147.277 81.8137 147.277 82.5V87.4005C147.277 88.0868 147.893 88.6431 148.652 88.6431H153.495C154.255 88.6431 154.87 88.0868 154.87 87.4005V82.5C154.87 81.8137 154.255 81.2574 153.495 81.2574H148.652ZM144.682 82.5C144.682 80.5179 146.459 78.9111 148.652 78.9111H153.495C155.688 78.9111 157.466 80.5179 157.466 82.5V87.4005C157.466 89.3826 155.688 90.9893 153.495 90.9893H148.652C146.459 90.9893 144.682 89.3826 144.682 87.4005V82.5Z" fill="#22215B"/>
<path d="M151.216 86.1065C152 86.1065 152.636 85.5312 152.636 84.8215C152.636 84.1119 152 83.5366 151.216 83.5366C150.431 83.5366 149.795 84.1119 149.795 84.8215C149.795 85.5312 150.431 86.1065 151.216 86.1065Z" fill="#22215B"/>
<path fill-rule="evenodd" clip-rule="evenodd" d="M140.334 78.397C141.01 78.397 141.557 78.9277 141.557 79.5823V87.495C141.557 88.1496 141.01 88.6803 140.334 88.6803H138.889V92.6306C138.889 93.2853 138.341 93.816 137.666 93.816C136.991 93.816 136.443 93.2853 136.443 92.6306V87.495C136.443 86.8404 136.991 86.3097 137.666 86.3097H139.112V79.5823C139.112 78.9277 139.659 78.397 140.334 78.397Z" fill="#22215B"/>
<path fill-rule="evenodd" clip-rule="evenodd" d="M135.875 82.5085C135.875 81.7989 136.44 81.2236 137.137 81.2236H140.295C140.992 81.2236 141.557 81.7989 141.557 82.5085C141.557 83.2182 140.992 83.7935 140.295 83.7935H137.137C136.44 83.7935 135.875 83.2182 135.875 82.5085Z" fill="#22215B"/>
<path fill-rule="evenodd" clip-rule="evenodd" d="M120.25 94.4322C120.25 93.8079 120.837 93.3018 121.56 93.3018H124.905C125.629 93.3018 126.216 93.8079 126.216 94.4322C126.216 95.0566 125.629 95.5627 124.905 95.5627H122.871V97.8249C122.871 98.4493 122.284 98.9554 121.56 98.9554C120.837 98.9554 120.25 98.4493 120.25 97.8249V94.4322Z" fill="#22215B"/>
<path fill-rule="evenodd" clip-rule="evenodd" d="M126.784 97.0945C126.784 96.4194 127.376 95.8721 128.105 95.8721H137.395C138.125 95.8721 138.716 96.4194 138.716 97.0945V100.046C138.716 100.721 138.125 101.269 137.395 101.269C136.666 101.269 136.074 100.721 136.074 100.046V98.317H128.105C127.376 98.317 126.784 97.7697 126.784 97.0945Z" fill="#22215B"/>
<path fill-rule="evenodd" clip-rule="evenodd" d="M130.619 92.7881C131.325 92.7881 131.898 93.3109 131.898 93.9558V97.017C131.898 97.6619 131.325 98.1847 130.619 98.1847C129.913 98.1847 129.341 97.6619 129.341 97.017V93.9558C129.341 93.3109 129.913 92.7881 130.619 92.7881Z" fill="#22215B"/>
<path fill-rule="evenodd" clip-rule="evenodd" d="M137.706 104.352C138.404 104.352 138.969 104.887 138.969 105.547V107.784H140.462C141.16 107.784 141.725 108.319 141.725 108.979V110.443H143.987C144.685 110.443 145.25 110.978 145.25 111.638C145.25 112.298 144.685 112.832 143.987 112.832H140.462C139.765 112.832 139.199 112.298 139.199 111.638V110.174H137.706C137.009 110.174 136.443 109.639 136.443 108.979V105.547C136.443 104.887 137.009 104.352 137.706 104.352Z" fill="#22215B"/>
<path fill-rule="evenodd" clip-rule="evenodd" d="M144.966 107.565C144.966 106.926 145.544 106.408 146.258 106.408H148.219C148.933 106.408 149.511 106.926 149.511 107.565C149.511 108.203 148.933 108.721 148.219 108.721H146.258C145.544 108.721 144.966 108.203 144.966 107.565Z" fill="#22215B"/>
<path fill-rule="evenodd" clip-rule="evenodd" d="M143.08 97.9272C143.808 97.9272 144.398 98.4666 144.398 99.1319V103.661C144.398 104.326 143.808 104.866 143.08 104.866H140.034C139.306 104.866 138.716 104.326 138.716 103.661C138.716 102.996 139.306 102.457 140.034 102.457H141.762V99.1319C141.762 98.4666 142.352 97.9272 143.08 97.9272Z" fill="#22215B"/>
<path fill-rule="evenodd" clip-rule="evenodd" d="M141.272 94.4742C141.272 93.8267 141.853 93.3018 142.569 93.3018H148.783C149.499 93.3018 150.079 93.8267 150.079 94.4742V100.096C150.079 100.743 149.499 101.268 148.783 101.268C148.067 101.268 147.487 100.743 147.487 100.096V95.6466H142.569C141.853 95.6466 141.272 95.1217 141.272 94.4742Z" fill="#22215B"/>
<path fill-rule="evenodd" clip-rule="evenodd" d="M147.522 97.0285C147.522 96.3898 148.081 95.8721 148.77 95.8721H151.956C152.646 95.8721 153.204 96.3898 153.204 97.0285C153.204 97.6672 152.646 98.1849 151.956 98.1849H148.77C148.081 98.1849 147.522 97.6672 147.522 97.0285Z" fill="#22215B"/>
<path fill-rule="evenodd" clip-rule="evenodd" d="M156.472 92.5312C157.178 92.5312 157.75 93.0445 157.75 93.6776V96.5246C157.75 97.1577 157.178 97.6709 156.472 97.6709C155.766 97.6709 155.193 97.1577 155.193 96.5246V93.6776C155.193 93.0445 155.766 92.5312 156.472 92.5312Z" fill="#22215B"/>
<path fill-rule="evenodd" clip-rule="evenodd" d="M156.171 97.9272C156.886 97.9272 157.466 98.4551 157.466 99.1062V103.173C157.466 103.824 156.886 104.352 156.171 104.352H151.659C150.944 104.352 150.364 103.824 150.364 103.173C150.364 102.522 150.944 101.994 151.659 101.994H154.875V99.1062C154.875 98.4551 155.455 97.9272 156.171 97.9272Z" fill="#22215B"/>
<path fill-rule="evenodd" clip-rule="evenodd" d="M153.611 106.922C154.328 106.922 154.909 107.45 154.909 108.1V111.654C154.909 112.305 154.328 112.832 153.611 112.832H148.82C148.104 112.832 147.522 112.305 147.522 111.654C147.522 111.003 148.104 110.475 148.82 110.475H152.313V108.1C152.313 107.45 152.894 106.922 153.611 106.922Z" fill="#22215B"/>
<path d="M121.136 72.1289C121.635 72.1289 122.092 72.0591 122.5 71.9141L123.107 72.7251H124.616L123.563 71.3232C124.439 70.6304 124.874 69.5132 124.874 68.1221C124.874 65.6406 123.418 64.1152 121.136 64.1152C118.853 64.1152 117.397 65.6675 117.397 68.1221C117.397 70.582 118.821 72.1289 121.136 72.1289ZM121.136 70.813C119.852 70.813 119.036 69.7549 119.036 68.1221C119.036 66.4946 119.852 65.4365 121.136 65.4365C122.419 65.4365 123.247 66.4946 123.247 68.1221C123.247 68.9331 123.026 69.626 122.618 70.0771L122.156 69.4487H120.647L121.614 70.7485C121.469 70.7915 121.308 70.813 121.136 70.813ZM127.549 69.1641H128.849L130.293 72H132.13L130.498 68.9224C131.389 68.5732 131.905 67.7139 131.905 66.7202C131.905 65.1895 130.884 64.2495 129.101 64.2495H125.927V72H127.549V69.1641ZM127.549 65.5171H128.929C129.735 65.5171 130.24 66.0005 130.24 66.7524C130.24 67.5205 129.762 67.9878 128.945 67.9878H127.549V65.5171ZM140.251 68.3853C140.182 67.0801 139.193 66.1187 137.636 66.1187C135.912 66.1187 134.811 67.2681 134.811 69.1157C134.811 70.9956 135.912 72.1235 137.646 72.1235C139.161 72.1235 140.176 71.248 140.257 69.8892H138.796C138.699 70.5176 138.291 70.8936 137.663 70.8936C136.884 70.8936 136.4 70.249 136.4 69.1157C136.4 68.0039 136.884 67.3486 137.657 67.3486C138.302 67.3486 138.705 67.7783 138.796 68.3853H140.251ZM143.657 72.1235C145.397 72.1235 146.509 71.0117 146.509 69.1157C146.509 67.2466 145.381 66.1187 143.657 66.1187C141.933 66.1187 140.805 67.252 140.805 69.1157C140.805 71.0063 141.917 72.1235 143.657 72.1235ZM143.657 70.9258C142.883 70.9258 142.395 70.2759 142.395 69.1211C142.395 67.9771 142.894 67.3164 143.657 67.3164C144.419 67.3164 144.914 67.9771 144.914 69.1211C144.914 70.2759 144.425 70.9258 143.657 70.9258ZM149.458 72.0913C150.306 72.0913 150.972 71.6455 151.251 71.0117H151.278V72H152.825V64.2495H151.257V67.2305H151.225C150.945 66.5913 150.301 66.1509 149.468 66.1509C148.023 66.1509 147.11 67.2842 147.11 69.1104C147.11 70.9526 148.018 72.0913 149.458 72.0913ZM149.989 67.4077C150.768 67.4077 151.268 68.0737 151.268 69.1211C151.268 70.1738 150.768 70.8291 149.989 70.8291C149.2 70.8291 148.716 70.1792 148.716 69.1211C148.716 68.0684 149.2 67.4077 149.989 67.4077ZM157.686 70.2383C157.541 70.6787 157.101 70.9634 156.526 70.9634C155.726 70.9634 155.205 70.3994 155.205 69.5776V69.481H159.174V69.0029C159.174 67.252 158.116 66.1187 156.44 66.1187C154.737 66.1187 153.663 67.311 153.663 69.1479C153.663 70.9902 154.727 72.1235 156.499 72.1235C157.922 72.1235 158.954 71.3662 159.125 70.2383H157.686ZM156.456 67.2788C157.154 67.2788 157.632 67.7837 157.665 68.5195H155.221C155.274 67.7998 155.769 67.2788 156.456 67.2788Z" fill="#22215B"/>
<rect x="18" y="20" width="59" height="4" rx="2" fill="#B0C0D0"/>
<rect x="93" y="20" width="59" height="4" rx="2" fill="#B0C0D0"/>
<rect x="18" y="33" width="145" height="4" rx="2" fill="#B0C0D0"/>
<rect x="18" y="46" width="145" height="4" rx="2" fill="#B0C0D0"/>
<rect x="18" y="73" width="73" height="4" rx="2" fill="#B0C0D0"/>
<rect x="18" y="86" width="56" height="4" rx="2" fill="#B0C0D0"/>
<rect x="18" y="99" width="56" height="4" rx="2" fill="#B0C0D0"/>
<rect x="18" y="112" width="81" height="4" rx="2" fill="#B0C0D0"/>
<rect x="18" y="130" width="145" height="4" rx="2" fill="#B0C0D0"/>
<rect x="18" y="148" width="35" height="4" rx="2" fill="#B0C0D0"/>
<rect x="116" y="148" width="47" height="4" rx="2" fill="#B0C0D0"/>
<path d="M64.4004 153H66.3623V151.188H67.6611V149.541H66.3623V143.136H63.4502C61.4268 146.109 60.3535 147.832 59.4922 149.466V151.188H64.4004V153ZM61.29 149.541C62.0762 148.071 62.9717 146.67 64.4004 144.612H64.4414V149.596H61.29V149.541ZM69.1377 153H71.3047L75.4199 144.797V143.136H68.3652V144.776H73.3828V144.817L69.1377 153ZM76.5205 146.137H78.4346C78.4346 145.187 79.1797 144.523 80.1641 144.523C81.0527 144.523 81.6611 145.125 81.6611 145.918C81.6611 146.602 81.3809 147.073 80.1299 148.276L76.6367 151.585V153H83.8076V151.359H79.3369V151.318L81.4082 149.336C83.0762 147.743 83.6709 146.998 83.6709 145.788C83.6709 144.147 82.2764 142.917 80.1641 142.917C78.0244 142.917 76.5205 144.236 76.5205 146.137ZM88.9414 153.219C91.4434 153.219 92.9609 151.229 92.9609 148.044C92.9609 144.858 91.4297 142.91 88.9414 142.91C86.4531 142.91 84.915 144.865 84.915 148.051C84.915 151.243 86.4395 153.219 88.9414 153.219ZM88.9414 151.564C87.7246 151.564 87.0137 150.313 87.0137 148.051C87.0137 145.809 87.7383 144.564 88.9414 144.564C90.1514 144.564 90.8623 145.802 90.8623 148.051C90.8623 150.313 90.1582 151.564 88.9414 151.564ZM96.6182 148.659H97.7461C98.9424 148.659 99.6465 149.192 99.6396 150.149C99.6396 150.983 98.9287 151.558 97.8965 151.558C96.8096 151.558 96.0986 151.011 96.0303 150.204H94.0615C94.1504 152.016 95.668 153.219 97.8965 153.219C100.187 153.219 101.738 152.029 101.738 150.238C101.738 148.885 100.781 148.017 99.3184 147.88V147.839C100.48 147.6 101.376 146.786 101.376 145.528C101.376 143.949 99.9678 142.917 97.8828 142.917C95.8184 142.917 94.3828 144.072 94.2803 145.877H96.1738C96.2354 145.022 96.9121 144.503 97.8828 144.503C98.8672 144.503 99.4209 145.016 99.4209 145.822C99.4209 146.629 98.751 147.189 97.7188 147.189H96.6182V148.659ZM102.935 146.137H104.849C104.849 145.187 105.594 144.523 106.578 144.523C107.467 144.523 108.075 145.125 108.075 145.918C108.075 146.602 107.795 147.073 106.544 148.276L103.051 151.585V153H110.222V151.359H105.751V151.318L107.822 149.336C109.49 147.743 110.085 146.998 110.085 145.788C110.085 144.147 108.69 142.917 106.578 142.917C104.438 142.917 102.935 144.236 102.935 146.137Z" fill="#22215B"/>
</svg>
