<svg width="42" height="42" viewBox="0 0 42 42" fill="none" xmlns="http://www.w3.org/2000/svg">
<rect x="0.5" y="0.5" width="41" height="41" rx="5.5" fill="#F7FAFF"/>
<path fill-rule="evenodd" clip-rule="evenodd" d="M25.3341 11.75H16.6651C13.6441 11.75 11.7501 13.889 11.7501 16.916V25.084C11.7501 28.111 13.6351 30.25 16.6651 30.25H25.3331C28.3641 30.25 30.2501 28.111 30.2501 25.084V16.916C30.2501 13.889 28.3641 11.75 25.3341 11.75Z" stroke="#415EB6" stroke-width="1.5" stroke-linecap="round" stroke-linejoin="round"/>
<path d="M24.5303 19.5303C24.8232 19.2374 24.8232 18.7626 24.5303 18.4697C24.2374 18.1768 23.7626 18.1768 23.4697 18.4697L24.5303 19.5303ZM20 23L19.4697 23.5303C19.7626 23.8232 20.2374 23.8232 20.5303 23.5303L20 23ZM18.5303 20.4697C18.2374 20.1768 17.7626 20.1768 17.4697 20.4697C17.1768 20.7626 17.1768 21.2374 17.4697 21.5303L18.5303 20.4697ZM23.4697 18.4697L19.4697 22.4697L20.5303 23.5303L24.5303 19.5303L23.4697 18.4697ZM20.5303 22.4697L18.5303 20.4697L17.4697 21.5303L19.4697 23.5303L20.5303 22.4697Z" fill="#415EB6"/>
<rect x="0.5" y="0.5" width="41" height="41" rx="5.5" stroke="#EEF2FE"/>
</svg>
