<svg width="42" height="42" viewBox="0 0 42 42" fill="none" xmlns="http://www.w3.org/2000/svg">
<rect x="0.5" y="0.5" width="41" height="41" rx="5.5" fill="#F7FAFF"/>
<path fill-rule="evenodd" clip-rule="evenodd" d="M25.3341 11.75H16.6651C13.6441 11.75 11.7501 13.889 11.7501 16.916V25.084C11.7501 28.111 13.6351 30.25 16.6651 30.25H25.3331C28.3641 30.25 30.2501 28.111 30.2501 25.084V16.916C30.2501 13.889 28.3641 11.75 25.3341 11.75Z" stroke="#415EB6" stroke-width="1.5" stroke-linecap="round" stroke-linejoin="round"/>
<circle cx="21" cy="24.5" r="1" fill="#415EB6"/>
<path d="M19 19V18.5C19 17.3954 19.8954 16.5 21 16.5V16.5V16.5C22.1046 16.5 23 17.3954 23 18.5V18.6213C23 19.1839 22.7765 19.7235 22.3787 20.1213L21 21.5" stroke="#415EB6" stroke-width="1.5" stroke-linecap="round" stroke-linejoin="round"/>
<rect x="0.5" y="0.5" width="41" height="41" rx="5.5" stroke="#EEF2FE"/>
</svg>
